<svg width="14" height="14" viewBox="0 0 14 14" fill="none" xmlns="http://www.w3.org/2000/svg">
<g clip-path="url(#clip0_338_15108)">
<path d="M10.6917 13.1252C10.1579 13.1252 9.40814 12.9322 8.2854 12.3049C6.92013 11.5393 5.86411 10.8325 4.50622 9.47813C3.197 8.16973 2.55989 7.32262 1.66821 5.70004C0.66087 3.86801 0.832588 2.9077 1.02454 2.49727C1.25314 2.00672 1.59056 1.71332 2.02669 1.42211C2.27441 1.25981 2.53656 1.12068 2.80981 1.00648C2.83716 0.994727 2.86259 0.983516 2.88528 0.973399C3.02064 0.912422 3.22571 0.820274 3.48548 0.918711C3.65884 0.983789 3.8136 1.11695 4.05587 1.35621C4.55271 1.84621 5.23165 2.9375 5.48212 3.47344C5.65028 3.83465 5.76157 4.07309 5.76185 4.34051C5.76185 4.65359 5.60435 4.89504 5.41321 5.15563C5.37739 5.20457 5.34185 5.25133 5.30739 5.29672C5.09931 5.57016 5.05364 5.64918 5.08372 5.79027C5.1447 6.07383 5.59942 6.91793 6.34673 7.66359C7.09403 8.40926 7.9138 8.83527 8.19845 8.89598C8.34556 8.92742 8.42622 8.87984 8.70841 8.66438C8.74888 8.63348 8.79044 8.60149 8.83392 8.56949C9.1254 8.35266 9.35564 8.19926 9.66134 8.19926H9.66298C9.92903 8.19926 10.1568 8.31465 10.5342 8.50496C11.0263 8.75324 12.1504 9.42344 12.6434 9.92082C12.8833 10.1625 13.017 10.3168 13.0823 10.4898C13.1808 10.7504 13.0881 10.9547 13.0276 11.0914C13.0175 11.1141 13.0063 11.139 12.9945 11.1666C12.8794 11.4394 12.7395 11.701 12.5765 11.9481C12.2858 12.3829 11.9913 12.7195 11.4997 12.9483C11.2472 13.0677 10.9709 13.1282 10.6917 13.1252Z" fill="#FD9BD4"/>
</g>
<defs>
<clipPath id="clip0_338_15108">
<rect width="14" height="14" fill="white"/>
</clipPath>
</defs>
</svg>
