<svg width="12" height="13" viewBox="0 0 12 13" fill="none" xmlns="http://www.w3.org/2000/svg">
<path d="M6.93743 11.3457C6.87728 11.3457 6.81753 11.3359 6.76048 11.3169L4.88196 10.6918C4.77025 10.6543 4.6732 10.5825 4.60462 10.4866C4.53604 10.3908 4.49941 10.2757 4.49993 10.1579V7.36391C4.49942 7.36277 4.4987 7.36174 4.49782 7.36086L0.545088 2.7568C0.457441 2.65469 0.400935 2.52958 0.382279 2.39631C0.363623 2.26304 0.3836 2.12722 0.439839 2.00497C0.496078 1.88272 0.586217 1.77918 0.699553 1.70663C0.81289 1.63408 0.944663 1.59559 1.07923 1.5957H10.9218C11.0564 1.59559 11.1881 1.63408 11.3015 1.70663C11.4148 1.77918 11.505 1.88272 11.5612 2.00497C11.6174 2.12722 11.6374 2.26304 11.6188 2.39631C11.6001 2.52958 11.5436 2.65469 11.4559 2.7568L7.50204 7.36133C7.50124 7.36227 7.50053 7.36329 7.49993 7.36438V10.7832C7.50015 10.8571 7.48575 10.9304 7.45756 10.9987C7.42936 11.0671 7.38794 11.1292 7.33566 11.1814C7.28339 11.2337 7.22129 11.2751 7.15295 11.3033C7.0846 11.3315 7.01136 11.3459 6.93743 11.3457Z" fill="white"/>
</svg>
