<svg width="28" height="29" viewBox="0 0 28 29" fill="none" xmlns="http://www.w3.org/2000/svg">
<path d="M25.5679 2.76445C25.4036 2.8028 25.0476 2.9233 24.7737 3.02737C24.5053 3.13692 19.132 5.16903 12.833 7.55717C6.53949 9.93983 1.27572 11.9391 1.13879 11.9993C0.0213997 12.4923 -0.33463 13.5275 0.344565 14.2834C0.476023 14.4258 0.700595 14.612 0.848485 14.6887C0.990897 14.7654 2.30547 15.2693 3.76793 15.8006C5.23039 16.3374 6.45185 16.7975 6.49019 16.8359C6.52306 16.8687 7.15843 18.2874 7.90336 19.9908C8.6428 21.6943 9.30009 23.2061 9.37129 23.3594C9.55205 23.7647 10.0834 24.2741 10.4832 24.4275C10.8831 24.5809 11.4527 24.5973 11.858 24.4604C12.3291 24.307 12.7235 24.0003 13.9175 22.8665C14.5474 22.2749 15.0897 21.8038 15.1225 21.8148C15.1609 21.8312 16.4316 22.6967 17.9544 23.7428C19.4771 24.7945 20.8464 25.7092 21.0053 25.7804C22.1391 26.3008 23.3112 25.8735 23.8425 24.7397C24.0069 24.3892 24.2479 23.2827 26.0171 14.7599C27.8356 5.9742 28.0054 5.13068 27.9999 4.65415C27.9944 3.77229 27.6931 3.23003 27.0249 2.90139C26.6086 2.69325 26.039 2.63847 25.5679 2.76445ZM26.3238 4.39124C26.3621 4.42958 26.3895 4.53365 26.3895 4.62129C26.3895 4.8842 22.4513 23.8798 22.3582 24.055C22.2267 24.307 22.0405 24.4001 21.7995 24.3234C21.6899 24.2906 20.4904 23.4964 19.132 22.5652C17.7791 21.6286 15.6539 20.1661 14.4105 19.3171C13.1671 18.4681 12.1593 17.7561 12.1648 17.7396C12.1702 17.7177 14.0106 16.0197 16.2564 13.9657C20.945 9.67144 20.1093 10.5126 20.1915 10.2661C20.3613 9.75124 19.8848 9.16516 19.3425 9.23088C19.2001 9.24732 18.7509 9.45546 18.1046 9.80053C17.042 10.3757 10.5654 13.3851 8.39084 14.5463C7.69522 14.9188 7.0927 15.2255 7.04888 15.2255C6.96125 15.2255 2.17401 13.4782 2.11376 13.4234C2.09185 13.407 2.42597 13.2591 2.85321 13.0948C3.28044 12.936 8.5716 10.9258 14.6132 8.63621C20.6547 6.34666 25.6939 4.44053 25.8144 4.40219C26.0937 4.31455 26.2416 4.30908 26.3238 4.39124ZM14.887 12.9962C14.8432 13.04 13.7806 14.0095 12.5317 15.1543C11.2829 16.2991 10.2093 17.2905 10.1491 17.3617C10.0505 17.4712 10.0395 17.5917 10.0012 18.6927C9.97928 19.3609 9.9519 20.0456 9.94642 20.2154L9.92999 20.5221L9.05908 18.5229C8.57707 17.4219 8.20461 16.5127 8.23748 16.5017C8.26486 16.4908 9.76567 15.6801 11.5732 14.7052C13.3807 13.7302 14.8815 12.9305 14.9144 12.9305C14.9418 12.925 14.9308 12.9579 14.887 12.9962ZM12.6687 20.1059C13.1945 20.4674 13.6382 20.785 13.6491 20.807C13.671 20.8398 11.7485 22.6802 11.6499 22.7186C11.5951 22.7405 11.5842 19.5362 11.6389 19.4814C11.6554 19.4595 11.6828 19.4431 11.6882 19.4431C11.6992 19.4431 12.1374 19.7389 12.6687 20.1059Z" fill="white"/>
</svg>
