<svg width="188" height="72" viewBox="0 0 188 72" fill="none" xmlns="http://www.w3.org/2000/svg">
<path d="M45.7812 2.71391C46.6125 3.47541 46.9235 4.28819 46.714 5.15224C46.422 6.1605 45.8674 7.07311 45.107 7.79677C44.1325 8.78758 43.0563 9.67289 41.8963 10.438C40.6176 11.3108 39.3085 12.1236 37.9687 12.8764C36.629 13.6291 35.3853 14.3034 34.2376 14.899C33.079 15.4838 32.2062 15.9322 31.6192 16.2442C32.6635 16.3736 33.6603 16.7568 34.5223 17.3603C35.3264 17.8961 35.9709 18.639 36.3879 19.5106C36.8064 20.4827 36.9205 21.5587 36.7152 22.597C36.4887 23.7032 36.077 24.7632 35.4977 25.7324C34.8623 26.8092 34.1057 27.8096 33.2426 28.7141C32.3562 29.6526 31.4129 30.5358 30.4181 31.3586C29.4297 32.1703 28.4554 32.8958 27.4954 33.5351C26.7053 34.0778 25.8822 34.5708 25.0308 35.0112C22.5038 36.375 19.869 37.5287 17.1529 38.4608C14.9078 39.2427 12.5881 39.7911 10.2306 40.0973C8.40348 40.3444 6.5487 40.3003 4.73539 39.9664C3.16001 39.6391 1.96758 39.0085 1.15807 38.0746C0.348566 37.1408 -0.0365491 35.9298 0.00272604 34.4417C0.0376373 32.9492 0.608218 31.1698 1.71447 29.1035C1.85193 28.8613 2.17268 28.6879 2.67344 28.5831C3.17712 28.4798 3.69133 28.4369 4.20517 28.4555C4.65707 28.4541 5.10383 28.5513 5.51434 28.7402C5.858 28.9137 5.94637 29.1559 5.7729 29.4668C5.56671 29.8465 5.23614 30.38 4.79103 31.0738C4.32751 31.7929 3.92045 32.5469 3.57349 33.3289C3.22362 34.0953 2.9792 34.9057 2.8469 35.7378C2.77375 36.0977 2.78819 36.4699 2.88901 36.823C2.98983 37.1762 3.17408 37.4999 3.42621 37.767C3.91061 38.319 4.74848 38.5787 5.93982 38.5459C7.37761 38.465 8.79838 38.1943 10.1652 37.7408C11.9592 37.1748 13.7167 36.4993 15.4281 35.7181C17.36 34.8441 19.2465 33.873 21.0804 32.8085C22.9634 31.7175 24.7515 30.5774 26.4447 29.3883C28.0004 28.3074 29.473 27.1116 30.8501 25.811C31.95 24.7995 32.9019 23.6382 33.6779 22.3613C34.3151 21.2572 34.4962 20.2895 34.2212 19.4582C34.1187 19.1006 33.9192 18.7783 33.6448 18.527C33.3704 18.2757 33.0319 18.1052 32.6666 18.0345C31.7347 17.8417 30.7741 17.8328 29.8388 18.0083C28.6672 18.2039 27.5142 18.4984 26.3924 18.8887C25.1814 19.3055 24.0151 19.7288 22.8936 20.1586C21.7721 20.5885 20.7782 20.9954 19.912 21.3794C19.3208 21.6524 18.7155 21.8939 18.0988 22.1027C17.3683 23.1721 16.7268 24.2996 16.1808 25.4739C15.5917 26.7176 15.0211 27.8925 14.4691 28.9988C14.4415 29.0755 14.3863 29.1391 14.3142 29.1773C14.2422 29.2154 14.1585 29.2253 14.0796 29.205C13.8687 29.1638 13.667 29.0851 13.4839 28.9726C13.2798 28.8548 13.0889 28.7154 12.9144 28.557C12.7877 28.4671 12.677 28.3564 12.5871 28.2297C12.4704 27.9945 12.4195 27.7321 12.4399 27.4703C12.4417 27.1144 12.468 26.759 12.5184 26.4066C12.5792 26.0138 12.6622 25.6248 12.7672 25.2415C12.8719 24.8422 12.9766 24.4887 13.0945 24.1778C12.7595 24.3398 12.402 24.4501 12.034 24.5051C11.6467 24.5745 11.2494 24.5656 10.8656 24.4789C10.713 24.4517 10.5703 24.3847 10.452 24.2847C10.3336 24.1847 10.2437 24.0553 10.1914 23.9094C10.0888 23.6148 10.2274 23.1566 10.607 22.5348C10.8185 22.2649 11.0837 22.042 11.386 21.8802C11.7984 21.6205 12.2468 21.3609 12.7312 21.1012L14.0403 20.4041C14.4396 20.1946 14.6949 20.0572 14.7931 19.9884C15.2088 19.3338 15.5786 18.6793 15.9092 18.0247C16.2397 17.3701 16.5474 16.7548 16.842 16.1853C17.1365 15.6158 17.3918 15.1314 17.6176 14.7321C17.7682 14.4323 17.9698 14.161 18.2133 13.9302C18.4092 13.8095 18.6385 13.7544 18.8679 13.7731C19.1902 13.7766 19.5114 13.8117 19.8269 13.8779C20.1482 13.9389 20.462 14.0344 20.7629 14.1626C20.9722 14.2405 21.1604 14.366 21.3128 14.5292C21.4325 14.7379 21.4955 14.9743 21.4955 15.2149C21.4955 15.4555 21.4325 15.6919 21.3128 15.9005C21.0706 16.4373 20.8611 16.9479 20.6909 17.4323C21.6923 17.14 22.6713 16.7758 23.6202 16.3424C25.0865 15.7205 26.7535 14.9568 28.6212 14.0513C30.489 13.1458 32.4069 12.1639 34.3751 11.1057C36.3388 10.0344 38.1018 8.98921 39.6641 7.97023C40.9563 7.16244 42.1559 6.21526 43.2414 5.1457C44.0728 4.27292 44.28 3.61833 43.8633 3.18194C43.3789 2.69755 42.4821 2.47172 41.1664 2.50772C39.5491 2.58458 37.9432 2.81916 36.3715 3.20812C34.4907 3.64451 32.4178 4.24019 30.153 4.99514C27.8881 5.7501 25.5905 6.62288 23.2602 7.61349C20.9277 8.59755 18.6366 9.65143 16.387 10.7751C14.1374 11.8988 12.0897 13.0411 10.2437 14.2019C8.58613 15.2207 7.00147 16.3537 5.50125 17.5926C4.19208 18.6989 3.32802 19.7364 2.90909 20.7052C2.76726 20.9801 2.52507 20.9539 2.1825 20.6266C1.78623 20.2043 1.51636 19.6793 1.40354 19.1113C1.23077 18.3067 1.23972 17.4737 1.42972 16.673C1.61955 15.7413 2.21632 14.8259 3.22002 13.927C4.89018 12.4405 6.70477 11.1248 8.63672 9.99945C11.0467 8.55777 13.5395 7.25944 16.1023 6.11121C18.8531 4.86875 21.6736 3.78686 24.5497 2.87101C27.3103 1.97628 30.1371 1.29998 33.0037 0.848343C35.4531 0.441589 37.945 0.354675 40.4169 0.589782C42.6468 0.831978 44.435 1.54002 45.7812 2.71391Z" fill="white"/>
<path d="M51.5402 21.3807C52.1948 20.8963 52.557 20.7403 52.6268 20.9126C52.6956 21.0861 52.5778 21.4134 52.2636 21.8945C51.8713 22.5296 51.4338 23.1356 50.9544 23.7077C50.3728 24.4088 49.7393 25.0653 49.0594 25.6715C48.3809 26.2837 47.6529 26.8387 46.8829 27.3308C46.2427 27.767 45.5197 28.0667 44.7587 28.2113C44.1522 28.2584 43.5439 28.1456 42.9946 27.884C42.2344 27.5706 41.5268 27.1423 40.8967 26.6141C40.2313 26.0738 39.6615 25.4254 39.2111 24.6961C38.776 24.0403 38.6086 23.2427 38.7431 22.4673C38.8587 21.8187 39.1256 21.2064 39.522 20.6802C39.9248 20.1223 40.3954 19.6166 40.9228 19.1747C41.4015 18.7632 41.9291 18.4125 42.4939 18.1306C42.9151 17.9046 43.3812 17.7749 43.8587 17.751C44.2272 17.7636 44.5892 17.8516 44.9224 18.0095C45.3163 18.1806 45.6834 18.4077 46.0123 18.6838C46.3374 18.9476 46.6066 19.2736 46.8043 19.6427C46.9895 19.9828 47.0714 20.3696 47.04 20.7555C46.8996 21.2527 46.631 21.7042 46.261 22.0647C45.7914 22.5885 45.2897 23.0826 44.7587 23.5441C44.064 24.154 43.3363 24.7255 42.579 25.2558C43.3405 25.4609 44.5591 25.2187 46.2348 24.5292C48.1301 23.7099 49.913 22.6518 51.5402 21.3807ZM45.4231 20.3988C45.2824 20.294 44.9649 20.3726 44.4642 20.6312C43.933 20.9089 43.4364 21.2484 42.9848 21.6425C42.5151 22.0399 42.1051 22.5029 41.7673 23.0171C41.44 23.5179 41.3614 23.9401 41.5349 24.287C41.8947 24.0753 42.2343 23.831 42.5495 23.5572C43.0186 23.1775 43.4856 22.7629 43.9503 22.3134C44.4183 21.865 44.8078 21.4559 45.1187 21.0926C45.4297 20.7293 45.5246 20.497 45.4231 20.3955V20.3988Z" fill="white"/>
<path d="M106.045 49.701C106.7 49.2166 107.063 49.0627 107.132 49.2329C107.201 49.4031 107.083 49.737 106.772 50.2148C106.38 50.8514 105.943 51.4585 105.463 52.0313C104.881 52.7308 104.248 53.3872 103.571 53.995C102.891 54.6065 102.162 55.1615 101.391 55.6544C100.75 56.0892 100.028 56.3888 99.2672 56.5348C98.6607 56.5803 98.0528 56.4676 97.5031 56.2076C96.7434 55.893 96.036 55.4648 95.4051 54.9377C94.7404 54.3966 94.1708 53.7484 93.7195 53.0197C93.2851 52.3636 93.1177 51.5663 93.2515 50.7909C93.3671 50.1412 93.634 49.528 94.0305 49.0006C94.4333 48.4436 94.9039 47.939 95.4313 47.4983C95.9134 47.0886 96.4444 46.7401 97.0121 46.4608C97.4361 46.2313 97.9054 46.0983 98.3867 46.0713C98.7544 46.0853 99.1153 46.1744 99.4472 46.3331C99.8404 46.4972 100.208 46.7177 100.537 46.9877C100.855 47.2546 101.118 47.5802 101.313 47.9467C101.498 48.288 101.58 48.6757 101.548 49.0627C101.407 49.5593 101.138 50.0105 100.769 50.3719C100.3 50.8947 99.7981 51.3876 99.2672 51.848C98.5732 52.459 97.8455 53.0305 97.0874 53.5597C97.85 53.7659 99.0675 53.527 100.743 52.8332C102.637 52.0194 104.419 50.9668 106.045 49.701ZM99.9283 48.7191C99.7876 48.6144 99.4701 48.6929 98.9693 48.9515C98.4396 49.2316 97.9433 49.5709 97.49 49.9628C97.021 50.361 96.6111 50.8238 96.2724 51.3374C95.9451 51.8382 95.8666 52.2637 96.0401 52.6073C96.3989 52.397 96.7375 52.1537 97.0514 51.8807C97.5161 51.5011 97.9842 51.0887 98.4489 50.637C98.9137 50.1854 99.3064 49.7828 99.6174 49.4195C99.9283 49.0562 100.023 48.8205 99.9218 48.7158L99.9283 48.7191Z" fill="white"/>
<path d="M69.1123 21.2253C69.5967 20.7758 69.9862 20.6667 70.2807 20.898C70.5753 21.1293 70.4804 21.5351 69.996 22.1155C69.7167 22.4254 69.3359 22.8836 68.8537 23.4902C68.3715 24.0968 67.8708 24.711 67.3515 25.3328C66.8633 25.9092 66.3409 26.4557 65.787 26.9693C65.4294 27.3544 64.9785 27.6408 64.4778 27.8006C63.8385 27.8856 63.1881 27.8137 62.5828 27.5912C61.8167 27.3757 61.1028 27.0059 60.4849 26.5045C60.0354 26.8144 59.599 27.1166 59.1757 27.4111C58.7961 27.6901 58.3768 27.9107 57.932 28.0657C57.4657 28.1324 56.9912 28.1147 56.5312 28.0134C55.9575 27.9028 55.4051 27.7018 54.8947 27.4177C54.3713 27.1337 53.8917 26.7754 53.471 26.354C53.0856 25.9513 52.8174 25.4511 52.6953 24.9073C52.5578 24.3182 52.7051 23.6178 53.1371 22.8061C53.578 21.9814 54.1081 21.2076 54.7179 20.4987C55.3043 19.8077 55.9553 19.1742 56.6621 18.607C57.3363 18.0735 57.8632 17.7855 58.2429 17.7527C58.5459 17.7208 58.8521 17.7385 59.1495 17.8051C59.5208 17.8803 59.8814 18.0012 60.223 18.1651C60.5743 18.3319 60.904 18.5407 61.2049 18.787C61.4774 19.0014 61.6839 19.2884 61.8006 19.615C62.285 19.1994 62.6973 19.0095 63.0443 19.0455C63.3192 19.1143 63.6138 19.1994 63.9247 19.3041C64.2199 19.4017 64.5067 19.5232 64.7822 19.6674C65.0319 19.7957 65.2542 19.9713 65.4368 20.1845C65.5173 20.2756 65.5774 20.383 65.613 20.4993C65.6486 20.6156 65.6588 20.7381 65.643 20.8587C65.6006 21.2598 65.4576 21.6437 65.2273 21.9748C64.9524 22.4396 64.6589 22.9141 64.3469 23.3985C64.0349 23.8829 63.7752 24.3193 63.568 24.7077C63.3618 25.0906 63.3258 25.3296 63.4665 25.4343C63.6072 25.539 63.7938 25.4343 64.1669 25.2019C64.54 24.9695 64.9688 24.6652 65.4761 24.2691C65.9834 23.8731 66.5725 23.4116 67.2107 22.8945C67.8489 22.3774 68.4904 21.8144 69.1123 21.2253ZM56.0991 26.2034C56.481 26.4107 56.9566 26.3016 57.5261 25.8761C58.1386 25.402 58.6884 24.8521 59.1626 24.2397C59.6593 23.6065 60.0975 22.9295 60.4718 22.217C60.7632 21.7442 60.9485 21.2138 61.0151 20.6624C60.9912 20.5925 60.9519 20.5289 60.9001 20.4764C60.8482 20.4238 60.7852 20.3836 60.7157 20.3587C60.6462 20.3339 60.572 20.325 60.4986 20.3328C60.4252 20.3406 60.3545 20.3649 60.2917 20.4038C59.8682 20.5929 59.4815 20.8555 59.1495 21.1795C58.6881 21.6104 58.2634 22.079 57.8796 22.5803C57.4797 23.087 57.1072 23.6147 56.7635 24.1611C56.4907 24.5885 56.2574 25.0399 56.0664 25.5096C55.9191 25.899 55.9289 26.1347 56.0991 26.2034Z" fill="white"/>
<path d="M73.9349 17.9082C74.0807 17.8197 74.2433 17.7627 74.4124 17.7407C74.5815 17.7187 74.7533 17.7323 74.9168 17.7806C75.3378 17.869 75.7413 18.026 76.1114 18.2453C76.484 18.4657 76.8309 18.727 77.1457 19.0243C77.4006 19.2289 77.583 19.51 77.666 19.8262C77.7348 19.9996 77.666 20.268 77.4566 20.6313C77.2194 21.0396 76.9513 21.4291 76.6547 21.7965C76.3274 22.2121 75.9805 22.6441 75.6172 23.1056C75.2539 23.5671 74.943 23.9435 74.6844 24.2741C74.4898 24.5022 74.3248 24.754 74.1935 25.0236C74.1215 25.197 74.2262 25.233 74.5044 25.1283C74.8636 24.948 75.2017 24.7285 75.5125 24.4737C75.9445 24.1464 76.4223 23.7569 76.9395 23.3085C77.4566 22.8602 77.9966 22.3889 78.553 21.875C79.1094 21.3612 79.6233 20.8931 80.1077 20.448C80.592 20.0029 81.0077 19.62 81.3514 19.309C81.5726 19.0939 81.8162 18.903 82.078 18.7395C82.3038 18.7081 82.5339 18.7259 82.7522 18.7919C83.0525 18.8711 83.3401 18.9923 83.6064 19.1519C83.8998 19.3264 84.1629 19.5475 84.3854 19.8065C84.5958 20.044 84.7631 20.3165 84.8796 20.6117C84.981 20.8899 84.8534 21.2662 84.4901 21.7768C84.1268 22.2874 83.7275 22.7882 83.2955 23.3085C82.8635 23.8289 82.4936 24.2904 82.1827 24.7061C81.8718 25.1218 81.7998 25.4 81.9732 25.5374C82.1467 25.6749 82.4838 25.5112 83.0893 25.1479C83.6948 24.7846 84.3756 24.3362 85.1381 23.7995C85.9007 23.2627 86.6306 22.7194 87.3408 22.163C88.0511 21.6066 88.5583 21.1975 88.8693 20.9193C89.4911 20.3662 89.9232 20.2385 90.1784 20.5298C90.4337 20.8211 90.3683 21.2466 90.0246 21.7997C89.8064 22.0419 89.3995 22.4783 88.8038 23.1089C88.2016 23.7635 87.5339 24.4181 86.8106 25.1054C86.1185 25.7665 85.3909 26.3893 84.6308 26.971C83.9075 27.5241 83.3217 27.835 82.9224 27.9037C82.4515 28.0092 81.9621 28.0003 81.4954 27.8776C80.986 27.7641 80.4985 27.5684 80.052 27.2983C79.6121 27.0348 79.2166 26.7034 78.8803 26.3164C78.5747 25.9824 78.3684 25.5698 78.2846 25.125C78.2158 24.8788 78.2158 24.6185 78.2846 24.3723C78.3315 24.2003 78.4009 24.0352 78.4908 23.8813C78.0424 24.261 77.5482 24.6832 77.0147 25.1512C76.4813 25.6192 75.951 26.0578 75.4339 26.4604C74.9704 26.8345 74.4851 27.181 73.9807 27.4979C73.6446 27.7343 73.2514 27.8767 72.8418 27.9103C72.5401 27.8931 72.2424 27.8325 71.9581 27.7303C71.5705 27.606 71.1974 27.4403 70.8453 27.2361C70.495 27.0378 70.166 26.8042 69.8634 26.5389C69.5949 26.3188 69.4044 26.0182 69.3201 25.6814C69.283 25.3716 69.4292 24.8708 69.7587 24.1791C70.086 23.4886 70.4852 22.7456 70.9533 21.9503C71.4196 21.1534 71.9299 20.3831 72.4817 19.6429C72.9261 19.0323 73.4117 18.4527 73.9349 17.9082Z" fill="white"/>
<path d="M91.8223 15.469C91.9958 15.2955 93.0824 15.1744 95.0952 15.1057C95.5835 14.6709 96.1031 14.2727 96.6499 13.9143C97.0617 13.6261 97.5483 13.4635 98.0507 13.4463C98.5396 13.4721 99.0094 13.6443 99.3991 13.9405C99.847 14.2345 100.234 14.6124 100.538 15.0533C102.303 15.0533 104.187 15.0358 106.19 15.0009C108.194 14.966 110.23 14.918 112.301 14.8569C114.919 14.7893 117.494 14.6856 120.025 14.546C122.556 14.4063 124.837 14.2678 126.869 14.1303C128.909 13.9929 130.602 13.8718 131.948 13.767C133.297 13.6623 134.125 13.6132 134.436 13.6132C135.094 13.623 135.747 13.7187 136.38 13.898C137.045 14.0709 137.695 14.2963 138.324 14.5722C138.823 14.7748 139.287 15.0542 139.699 15.4002C140.026 15.6948 140.088 15.9632 139.879 16.2054C139.741 16.3428 139.068 16.4203 137.859 16.4377C136.651 16.4552 135.052 16.4552 133.064 16.4377C131.075 16.4225 128.776 16.3963 126.168 16.3592C123.561 16.3221 120.795 16.2959 117.872 16.2806C114.952 16.2654 111.972 16.2654 108.93 16.2806C105.888 16.2959 102.933 16.3668 100.064 16.4934C99.5552 16.8779 99.071 17.2932 98.6136 17.7371C98.0245 18.2902 97.4223 18.8957 96.8004 19.5503C96.1786 20.2049 95.5633 20.8987 94.9578 21.6253C94.4117 22.2712 93.9015 22.9464 93.4293 23.648C93.0741 24.1537 92.7869 24.7039 92.5751 25.2845C92.418 25.7525 92.4605 26.0733 92.7027 26.2434C92.9449 26.4136 93.3933 26.2434 94.1559 25.7787C94.9185 25.3139 95.7367 24.7968 96.6171 24.1717C97.4976 23.5465 98.3453 22.9345 99.1569 22.3323C99.6973 21.9127 100.26 21.5226 100.843 21.1639C101.464 20.7493 101.914 20.6631 102.191 20.9053C102.466 21.1475 102.45 21.4748 102.139 21.8872C101.964 22.0923 101.549 22.5287 100.895 23.1963C100.168 23.9327 99.3975 24.6245 98.5874 25.2681C97.7212 25.9682 96.8033 26.6016 95.8415 27.1631C94.8901 27.7152 94.0686 27.9912 93.3769 27.9912C91.9587 27.9912 91.0346 27.6028 90.6048 26.826C90.1544 25.929 90.0172 24.907 90.2153 23.9229C90.4362 22.6218 90.8556 21.3623 91.459 20.1885C92.0816 18.918 92.8282 17.7121 93.6879 16.5883C92.0645 16.2566 91.4426 15.8835 91.8223 15.469Z" fill="white"/>
<path d="M118.21 20.9589C118.694 20.5432 119.09 20.4647 119.404 20.7265C119.718 20.9883 119.627 21.3811 119.142 21.944C118.787 22.3242 118.407 22.6795 118.003 23.0077C117.382 23.5401 116.595 24.2482 115.644 25.1319C114.692 26.0156 113.601 27.0433 112.371 28.215C111.144 29.3932 109.875 30.6718 108.561 32.0508C107.126 33.5587 105.841 35.203 104.725 36.9602C103.72 38.5672 105.38 35.6511 104.725 36.9602C104.071 38.2694 103.02 40.4623 102.621 41.3427C102.221 42.2231 101.868 42.7337 101.557 42.8711C101.178 43.0232 100.774 43.102 100.366 43.1035C99.9107 43.126 99.4553 43.074 99.0171 42.9497C98.6654 42.8704 98.3533 42.6685 98.1367 42.3802C97.9633 42.1184 98.0516 41.7485 98.3953 41.2641C98.6375 40.8845 99.1644 40.003 99.9761 38.6196C100.788 37.2384 99.783 38.9044 100.889 37.0388C101.996 35.1732 103.197 33.1767 104.489 31.0526C105.782 28.9285 107.036 26.9287 108.247 25.0631C107.556 25.7177 106.882 26.3068 106.224 26.8272C105.566 27.3476 105.033 27.6029 104.617 27.6029C104.333 27.5878 104.054 27.527 103.789 27.4229C103.439 27.2973 103.099 27.1429 102.774 26.9614C102.422 26.7694 102.093 26.5377 101.793 26.2708C101.524 26.0525 101.333 25.7527 101.249 25.4166C101.213 25.1417 101.344 24.6638 101.635 23.9896C101.968 23.2405 102.349 22.5135 102.774 21.8131C103.239 21.0374 103.74 20.2748 104.277 19.5221C104.702 18.9042 105.199 18.3385 105.756 17.8365C105.877 17.7471 106.017 17.6867 106.165 17.6601C106.313 17.6334 106.466 17.6411 106.61 17.6827C107.002 17.7595 107.377 17.9094 107.713 18.1245C108.074 18.3475 108.405 18.6171 108.695 18.9264C108.938 19.1502 109.11 19.4404 109.189 19.761C109.294 20.0065 109.121 20.4352 108.672 21.0702C108.224 21.7051 107.746 22.3041 107.245 22.9095C106.745 23.515 106.339 24.0322 106.028 24.4642C105.717 24.8962 105.75 25.0435 106.132 24.906C106.516 24.7332 106.874 24.5061 107.193 24.2318C107.629 23.8849 108.096 23.479 108.594 23.0143C109.091 22.5495 109.601 22.0564 110.122 21.5349C110.643 21.0178 111.124 20.553 111.575 20.1341C111.812 19.9348 112.031 19.7158 112.23 19.4795C112.33 19.3394 112.464 19.2268 112.619 19.1522C112.9 19.1231 113.183 19.1589 113.447 19.257C113.756 19.36 114.052 19.4995 114.328 19.6726C114.597 19.8398 114.827 20.0631 115.002 20.3272C115.162 20.5466 115.252 20.8088 115.261 21.08C115.261 21.3549 115.055 21.7509 114.639 22.2713C114.223 22.7917 113.696 23.4365 113.058 24.2154C112.42 24.9944 111.677 25.9075 110.829 26.9614C109.911 28.1155 109.054 29.3172 108.263 30.5617C108.368 30.4569 108.754 30.0445 109.428 29.3179C110.103 28.5913 110.934 27.7371 111.919 26.752C112.904 25.7668 113.958 24.7555 115.081 23.718C116.203 22.6804 117.241 21.7542 118.21 20.9589Z" fill="white"/>
<path d="M84.7019 30.6971C84.8918 30.6284 84.9736 30.7527 84.9441 31.0637C84.8734 31.4709 84.7185 31.8588 84.4892 32.2026C84.1743 32.7109 83.7923 33.1744 83.3535 33.5805C82.8398 34.0604 82.2387 34.4371 81.5828 34.6901C80.5367 35.0179 79.4664 35.2631 78.3819 35.4232C76.8545 35.685 75.2323 35.8825 73.5151 36.0156C72.1753 36.332 70.5389 36.7902 68.6057 37.3902C66.6725 37.9903 64.5341 38.6841 62.1907 39.4718C59.8691 40.253 57.4286 41.1083 54.8692 42.0378C52.3098 42.9673 49.7143 43.9437 47.0829 44.9671C44.4514 45.9839 41.8593 47.0192 39.3064 48.0731C36.7535 49.127 34.3446 50.1525 32.0798 51.1496C35.2 50.9314 38.33 50.7863 41.4698 50.7143C44.5982 50.6561 47.7269 50.8135 50.8337 51.1856C51.4162 51.2729 52.0174 51.3558 52.637 51.4344C53.238 51.5074 53.8331 51.6234 54.4175 51.7813C54.9868 51.9347 55.536 52.1544 56.054 52.4359C56.5802 52.7265 57.0475 53.1127 57.4319 53.5749C57.7985 54.0036 57.9817 54.308 57.9817 54.4848C57.9817 54.6615 57.8705 54.7531 57.6544 54.7597C57.3589 54.7599 57.0645 54.7247 56.7773 54.6549L55.6089 54.4095C52.8858 53.8719 50.1133 53.6262 47.3382 53.6763C44.166 53.7074 40.9976 53.9073 37.8467 54.2753C34.5912 54.6484 31.3848 55.1568 28.2275 55.8005C25.0703 56.4441 22.1977 57.1293 19.6099 57.8559C18.9379 58.0326 18.6313 57.8537 18.6902 57.3191C18.7524 56.7823 19.1353 56.1409 19.839 55.3881C20.7451 54.4902 21.7825 53.7353 22.9156 53.1494C24.436 52.3513 26.0964 51.8545 27.8053 51.6864C30.9146 50.0107 34.0621 48.4833 37.2477 47.1043C40.4334 45.7253 43.6638 44.427 46.9389 43.2095C50.2118 41.992 53.5066 40.8126 56.8231 39.6715C60.1397 38.5303 63.4726 37.3771 66.8219 36.212L58.5119 35.7898C55.874 35.6589 53.2556 35.5934 50.6569 35.5934C48.0582 35.5934 45.4235 35.6927 42.7528 35.8912C40.0821 36.092 37.2456 36.44 34.2432 36.9353C34.0599 36.968 33.9748 36.8207 33.9944 36.4869C34.0322 36.077 34.1513 35.6786 34.3446 35.3152C34.5959 34.8267 34.9279 34.384 35.3265 34.006C35.8138 33.5474 36.4313 33.2512 37.0939 33.1583C39.6418 32.734 42.2162 32.4879 44.7984 32.4219C47.4167 32.3521 50.0623 32.3696 52.7352 32.4743C55.4081 32.579 58.1007 32.7045 60.8128 32.8507C63.5206 32.9947 66.211 33.0482 68.8839 33.0111C71.5527 32.9732 74.2175 32.7908 76.8665 32.4645C79.5287 32.1262 82.1524 31.5344 84.7019 30.6971Z" fill="white"/>
<path d="M66.692 45.3819C67.1536 45.3795 67.6068 45.5052 68.0012 45.7452C68.1836 45.8465 68.341 45.9872 68.4622 46.1571C68.5834 46.3269 68.6651 46.5216 68.7016 46.727C69.0959 46.7967 69.4708 46.9494 69.8015 47.1751C70.1322 47.4009 70.4111 47.6944 70.6195 48.0362C71.0033 48.7124 71.1658 49.4918 71.0843 50.2651C71.9457 50.3676 72.8185 50.2234 73.6012 49.8494C74.3293 49.5311 74.976 49.0522 75.4929 48.4486C75.7 48.1933 75.9559 47.9819 76.2457 47.8267C76.3264 47.7775 76.4172 47.7472 76.5113 47.7381C76.6055 47.7291 76.7004 47.7415 76.789 47.7744C76.8578 47.8119 76.914 47.8688 76.9507 47.9381C76.9874 48.0074 77.0029 48.0859 76.9952 48.1639C76.9841 48.3962 76.9131 48.6217 76.789 48.8184C76.1689 49.8225 75.3476 50.6872 74.3769 51.3582C73.323 52.1208 71.932 52.6019 70.2039 52.8114C69.7418 53.5166 69.1732 54.1459 68.5183 54.677C67.8076 55.2499 66.9881 55.673 66.1094 55.9207C65.6094 56.0593 65.081 56.0593 64.581 55.9207C63.9504 55.7725 63.3524 55.5096 62.8169 55.145C62.2464 54.7638 61.7606 54.2692 61.3899 53.6918C61.0126 53.1115 60.8656 52.4112 60.9775 51.7281C61.0613 50.9844 61.2623 50.2586 61.5732 49.5778C61.8957 48.843 62.3139 48.1541 62.8169 47.5289C63.3014 46.9208 63.8898 46.4033 64.5548 46.0005C65.1952 45.5982 65.9358 45.3839 66.692 45.3819ZM64.617 53.934C64.7894 54.2133 65.1527 54.2133 65.7069 53.934C66.3228 53.6066 66.8687 53.1619 67.3139 52.6249C66.9145 52.3244 66.5804 51.9458 66.332 51.5121C66.0435 51.0061 65.8505 50.4514 65.7625 49.8756C65.2189 50.5859 64.7985 51.3825 64.5188 52.2321C64.2744 53.022 64.3072 53.5893 64.617 53.934Z" fill="white"/>
<path d="M78.5929 46.7774C78.6883 46.6779 78.8075 46.6044 78.9392 46.5637C79.0709 46.5231 79.2108 46.5166 79.3457 46.545C79.6462 46.6 79.9298 46.7244 80.1738 46.9083C80.4462 47.1096 80.6829 47.3552 80.8742 47.6349C81.0571 47.8696 81.1816 48.1445 81.2375 48.4368C81.3048 48.7364 81.2958 49.0481 81.2113 49.3434C81.1228 49.7167 81.0012 50.0815 80.848 50.4332C80.6941 50.7965 80.5469 51.1238 80.4094 51.4151C80.3027 51.6246 80.2161 51.8438 80.1508 52.0697C80.5743 51.7458 80.9725 51.3902 81.3422 51.006C81.964 50.4038 82.6186 49.7557 83.3059 49.0619C83.9933 48.368 84.6446 47.7527 85.2501 47.1963C85.5972 46.8425 85.9863 46.5326 86.4087 46.2733C86.6438 46.1976 86.8953 46.1885 87.1353 46.2472C87.4942 46.3094 87.8431 46.4195 88.1728 46.5745C88.506 46.7252 88.8193 46.9164 89.1056 47.1439C89.3552 47.332 89.5368 47.5962 89.6227 47.8967C89.6914 48.1749 89.5638 48.6233 89.2332 49.2452C88.9027 49.867 88.5525 50.5151 88.1728 51.1893C87.7931 51.8635 87.4527 52.469 87.1615 53.0025C86.8702 53.536 86.8047 53.86 86.9782 53.9615C87.1516 54.0629 87.5313 53.9287 88.1204 53.5491C88.7096 53.1694 89.3543 52.7014 90.0646 52.1483C90.7748 51.5951 91.4392 51.0322 92.061 50.4627C92.6829 49.8932 93.1313 49.4808 93.4095 49.2452C93.5975 49.0483 93.8404 48.9125 94.1066 48.8557C94.19 48.843 94.2752 48.8533 94.3531 48.8856C94.431 48.9179 94.4986 48.971 94.5485 49.039C94.6561 49.1885 94.7029 49.3734 94.6794 49.5561C94.6488 49.7948 94.5685 50.0245 94.4437 50.2303C94.2713 50.4725 93.9092 50.8958 93.3571 51.5002C92.8051 52.1046 92.1909 52.7439 91.5145 53.4182C90.8402 54.0924 90.1922 54.7055 89.5703 55.2575C89.1551 55.6755 88.6627 56.009 88.1204 56.2394C87.5671 56.4515 86.9679 56.5147 86.3825 56.4227C85.7534 56.338 85.1362 56.181 84.5431 55.9547C83.9988 55.7573 83.4968 55.4586 83.0637 55.0743C82.7128 54.7979 82.4791 54.3994 82.4092 53.9582C82.4033 53.6715 82.4662 53.3876 82.5924 53.1301C82.7508 52.706 82.9322 52.2908 83.1358 51.8864C83.3452 51.4708 83.5416 51.0911 83.7314 50.7442C83.8437 50.5635 83.939 50.3729 84.0162 50.1747C83.0147 51.246 82.1942 52.0926 81.5549 52.7145C80.9167 53.3363 80.2752 53.9058 79.637 54.4262C78.9988 54.9466 78.5406 55.2019 78.2624 55.2019C77.7648 55.1885 77.2808 55.0366 76.8648 54.7633C76.63 54.6239 76.429 54.4342 76.2762 54.2078C76.1234 53.9815 76.0226 53.7241 75.9811 53.4542C75.964 53.0268 76.0081 52.5992 76.112 52.1843C76.2456 51.5351 76.4182 50.8946 76.6292 50.2663C76.8553 49.5913 77.1332 48.9348 77.4605 48.3026C77.7307 47.7227 78.116 47.2038 78.5929 46.7774Z" fill="white"/>
<path d="M19.3554 69.0508V64.5008H21.1299C21.5285 64.5008 21.8687 64.5636 22.1504 64.6893C22.432 64.8149 22.6487 64.9969 22.8004 65.2353C22.952 65.4736 23.0279 65.7574 23.0279 66.0868C23.0279 66.4161 22.952 66.6999 22.8004 66.9383C22.6487 67.1723 22.432 67.3543 22.1504 67.4843C21.8687 67.6099 21.5285 67.6728 21.1299 67.6728H19.7129L20.0054 67.3673V69.0508H19.3554ZM20.0054 67.4323L19.7129 67.1073H21.1104C21.5264 67.1073 21.8405 67.0184 22.0529 66.8408C22.2695 66.6631 22.3779 66.4118 22.3779 66.0868C22.3779 65.7618 22.2695 65.5104 22.0529 65.3328C21.8405 65.1551 21.5264 65.0663 21.1104 65.0663H19.7129L20.0054 64.7413V67.4323ZM23.9828 69.0508V64.5008H25.7573C26.156 64.5008 26.4961 64.5636 26.7778 64.6893C27.0595 64.8149 27.2761 64.9969 27.4278 65.2353C27.5795 65.4736 27.6553 65.7574 27.6553 66.0868C27.6553 66.4161 27.5795 66.6999 27.4278 66.9383C27.2761 67.1723 27.0595 67.3521 26.7778 67.4778C26.4961 67.6034 26.156 67.6663 25.7573 67.6663H24.3403L24.6328 67.3673V69.0508H23.9828ZM27.0248 69.0508L25.8678 67.3998H26.5633L27.7333 69.0508H27.0248ZM24.6328 67.4323L24.3403 67.1138H25.7378C26.1538 67.1138 26.468 67.0249 26.6803 66.8473C26.897 66.6653 27.0053 66.4118 27.0053 66.0868C27.0053 65.7618 26.897 65.5104 26.6803 65.3328C26.468 65.1551 26.1538 65.0663 25.7378 65.0663H24.3403L24.6328 64.7413V67.4323ZM30.7594 69.1028C30.4128 69.1028 30.0899 69.0443 29.7909 68.9273C29.4963 68.8103 29.2406 68.6478 29.0239 68.4398C28.8073 68.2274 28.6383 67.9804 28.5169 67.6988C28.3956 67.4171 28.3349 67.1094 28.3349 66.7758C28.3349 66.4421 28.3956 66.1344 28.5169 65.8528C28.6383 65.5711 28.8073 65.3263 29.0239 65.1183C29.2406 64.9059 29.4963 64.7413 29.7909 64.6243C30.0856 64.5073 30.4084 64.4488 30.7594 64.4488C31.1061 64.4488 31.4246 64.5073 31.7149 64.6243C32.0096 64.7369 32.2653 64.8994 32.4819 65.1118C32.7029 65.3198 32.8719 65.5646 32.9889 65.8463C33.1103 66.1279 33.1709 66.4378 33.1709 66.7758C33.1709 67.1138 33.1103 67.4236 32.9889 67.7053C32.8719 67.9869 32.7029 68.2339 32.4819 68.4463C32.2653 68.6543 32.0096 68.8168 31.7149 68.9338C31.4246 69.0464 31.1061 69.1028 30.7594 69.1028ZM30.7594 68.5243C31.0108 68.5243 31.2426 68.4809 31.4549 68.3943C31.6716 68.3076 31.8579 68.1863 32.0139 68.0303C32.1743 67.8699 32.2978 67.6836 32.3844 67.4713C32.4754 67.2589 32.5209 67.0271 32.5209 66.7758C32.5209 66.5244 32.4754 66.2926 32.3844 66.0803C32.2978 65.8679 32.1743 65.6838 32.0139 65.5278C31.8579 65.3674 31.6716 65.2439 31.4549 65.1573C31.2426 65.0706 31.0108 65.0273 30.7594 65.0273C30.5038 65.0273 30.2676 65.0706 30.0509 65.1573C29.8386 65.2439 29.6523 65.3674 29.4919 65.5278C29.3316 65.6838 29.2059 65.8679 29.1149 66.0803C29.0283 66.2926 28.9849 66.5244 28.9849 66.7758C28.9849 67.0271 29.0283 67.2589 29.1149 67.4713C29.2059 67.6836 29.3316 67.8699 29.4919 68.0303C29.6523 68.1863 29.8386 68.3076 30.0509 68.3943C30.2676 68.4809 30.5038 68.5243 30.7594 68.5243ZM34.7494 66.6523H37.0959V67.2113H34.7494V66.6523ZM34.8144 69.0508H34.1644V64.5008H37.3754V65.0663H34.8144V69.0508ZM38.8819 66.4638H41.2219V67.0163H38.8819V66.4638ZM38.9404 68.4853H41.5924V69.0508H38.2904V64.5008H41.5014V65.0663H38.9404V68.4853ZM43.9709 69.1028C43.6242 69.1028 43.2927 69.0508 42.9764 68.9468C42.6601 68.8384 42.4109 68.6998 42.2289 68.5308L42.4694 68.0238C42.6427 68.1754 42.8637 68.3011 43.1324 68.4008C43.4011 68.5004 43.6806 68.5503 43.9709 68.5503C44.2352 68.5503 44.4497 68.5199 44.6144 68.4593C44.7791 68.3986 44.9004 68.3163 44.9784 68.2123C45.0564 68.1039 45.0954 67.9826 45.0954 67.8483C45.0954 67.6923 45.0434 67.5666 44.9394 67.4713C44.8397 67.3759 44.7076 67.3001 44.5429 67.2438C44.3826 67.1831 44.2049 67.1311 44.0099 67.0878C43.8149 67.0444 43.6177 66.9946 43.4184 66.9383C43.2234 66.8776 43.0436 66.8018 42.8789 66.7108C42.7186 66.6198 42.5886 66.4984 42.4889 66.3468C42.3892 66.1908 42.3394 65.9914 42.3394 65.7488C42.3394 65.5148 42.4001 65.3003 42.5214 65.1053C42.6471 64.9059 42.8377 64.7478 43.0934 64.6308C43.3534 64.5094 43.6827 64.4488 44.0814 64.4488C44.3457 64.4488 44.6079 64.4834 44.8679 64.5528C45.1279 64.6221 45.3532 64.7218 45.5439 64.8518L45.3294 65.3718C45.1344 65.2418 44.9286 65.1486 44.7119 65.0923C44.4952 65.0316 44.2851 65.0013 44.0814 65.0013C43.8257 65.0013 43.6156 65.0338 43.4509 65.0988C43.2862 65.1638 43.1649 65.2504 43.0869 65.3588C43.0132 65.4671 42.9764 65.5884 42.9764 65.7228C42.9764 65.8831 43.0262 66.0109 43.1259 66.1063C43.2299 66.2016 43.3621 66.2774 43.5224 66.3338C43.6871 66.3901 43.8669 66.4421 44.0619 66.4898C44.2569 66.5331 44.4519 66.5829 44.6469 66.6393C44.8462 66.6956 45.0261 66.7693 45.1864 66.8603C45.3511 66.9513 45.4832 67.0726 45.5829 67.2243C45.6826 67.3759 45.7324 67.5709 45.7324 67.8093C45.7324 68.0389 45.6696 68.2534 45.5439 68.4528C45.4182 68.6478 45.2232 68.8059 44.9589 68.9273C44.6989 69.0443 44.3696 69.1028 43.9709 69.1028ZM48.008 69.1028C47.6613 69.1028 47.3298 69.0508 47.0135 68.9468C46.6972 68.8384 46.448 68.6998 46.266 68.5308L46.5065 68.0238C46.6798 68.1754 46.9008 68.3011 47.1695 68.4008C47.4382 68.5004 47.7177 68.5503 48.008 68.5503C48.2723 68.5503 48.4868 68.5199 48.6515 68.4593C48.8162 68.3986 48.9375 68.3163 49.0155 68.2123C49.0935 68.1039 49.1325 67.9826 49.1325 67.8483C49.1325 67.6923 49.0805 67.5666 48.9765 67.4713C48.8768 67.3759 48.7447 67.3001 48.58 67.2438C48.4197 67.1831 48.242 67.1311 48.047 67.0878C47.852 67.0444 47.6548 66.9946 47.4555 66.9383C47.2605 66.8776 47.0807 66.8018 46.916 66.7108C46.7557 66.6198 46.6257 66.4984 46.526 66.3468C46.4263 66.1908 46.3765 65.9914 46.3765 65.7488C46.3765 65.5148 46.4372 65.3003 46.5585 65.1053C46.6842 64.9059 46.8748 64.7478 47.1305 64.6308C47.3905 64.5094 47.7198 64.4488 48.1185 64.4488C48.3828 64.4488 48.645 64.4834 48.905 64.5528C49.165 64.6221 49.3903 64.7218 49.581 64.8518L49.3665 65.3718C49.1715 65.2418 48.9657 65.1486 48.749 65.0923C48.5323 65.0316 48.3222 65.0013 48.1185 65.0013C47.8628 65.0013 47.6527 65.0338 47.488 65.0988C47.3233 65.1638 47.202 65.2504 47.124 65.3588C47.0503 65.4671 47.0135 65.5884 47.0135 65.7228C47.0135 65.8831 47.0633 66.0109 47.163 66.1063C47.267 66.2016 47.3992 66.2774 47.5595 66.3338C47.7242 66.3901 47.904 66.4421 48.099 66.4898C48.294 66.5331 48.489 66.5829 48.684 66.6393C48.8833 66.6956 49.0632 66.7693 49.2235 66.8603C49.3882 66.9513 49.5203 67.0726 49.62 67.2243C49.7197 67.3759 49.7695 67.5709 49.7695 67.8093C49.7695 68.0389 49.7067 68.2534 49.581 68.4528C49.4553 68.6478 49.2603 68.8059 48.996 68.9273C48.736 69.0443 48.4067 69.1028 48.008 69.1028ZM50.7191 69.0508V64.5008H51.3691V69.0508H50.7191ZM54.7853 69.1028C54.4387 69.1028 54.1158 69.0443 53.8168 68.9273C53.5222 68.8103 53.2665 68.6478 53.0498 68.4398C52.8332 68.2274 52.6642 67.9804 52.5428 67.6988C52.4215 67.4171 52.3608 67.1094 52.3608 66.7758C52.3608 66.4421 52.4215 66.1344 52.5428 65.8528C52.6642 65.5711 52.8332 65.3263 53.0498 65.1183C53.2665 64.9059 53.5222 64.7413 53.8168 64.6243C54.1115 64.5073 54.4343 64.4488 54.7853 64.4488C55.132 64.4488 55.4505 64.5073 55.7408 64.6243C56.0355 64.7369 56.2912 64.8994 56.5078 65.1118C56.7288 65.3198 56.8978 65.5646 57.0148 65.8463C57.1362 66.1279 57.1968 66.4378 57.1968 66.7758C57.1968 67.1138 57.1362 67.4236 57.0148 67.7053C56.8978 67.9869 56.7288 68.2339 56.5078 68.4463C56.2912 68.6543 56.0355 68.8168 55.7408 68.9338C55.4505 69.0464 55.132 69.1028 54.7853 69.1028ZM54.7853 68.5243C55.0367 68.5243 55.2685 68.4809 55.4808 68.3943C55.6975 68.3076 55.8838 68.1863 56.0398 68.0303C56.2002 67.8699 56.3237 67.6836 56.4103 67.4713C56.5013 67.2589 56.5468 67.0271 56.5468 66.7758C56.5468 66.5244 56.5013 66.2926 56.4103 66.0803C56.3237 65.8679 56.2002 65.6838 56.0398 65.5278C55.8838 65.3674 55.6975 65.2439 55.4808 65.1573C55.2685 65.0706 55.0367 65.0273 54.7853 65.0273C54.5297 65.0273 54.2935 65.0706 54.0768 65.1573C53.8645 65.2439 53.6782 65.3674 53.5178 65.5278C53.3575 65.6838 53.2318 65.8679 53.1408 66.0803C53.0542 66.2926 53.0108 66.5244 53.0108 66.7758C53.0108 67.0271 53.0542 67.2589 53.1408 67.4713C53.2318 67.6836 53.3575 67.8699 53.5178 68.0303C53.6782 68.1863 53.8645 68.3076 54.0768 68.3943C54.2935 68.4809 54.5297 68.5243 54.7853 68.5243ZM58.1903 69.0508V64.5008H58.7233L61.7328 68.2383H61.4533V64.5008H62.1033V69.0508H61.5703L58.5608 65.3133H58.8403V69.0508H58.1903ZM62.7762 69.0508L64.8367 64.5008H65.4802L67.5472 69.0508H66.8647L65.0252 64.8648H65.2852L63.4457 69.0508H62.7762ZM63.6537 67.9133L63.8292 67.3933H66.3902L66.5787 67.9133H63.6537ZM68.226 69.0508V64.5008H68.876V68.4853H71.3395V69.0508H68.226ZM75.8654 69.1028C75.5188 69.1028 75.1981 69.0464 74.9034 68.9338C74.6131 68.8168 74.3596 68.6543 74.1429 68.4463C73.9306 68.2339 73.7638 67.9869 73.6424 67.7053C73.5211 67.4236 73.4604 67.1138 73.4604 66.7758C73.4604 66.4378 73.5211 66.1279 73.6424 65.8463C73.7638 65.5646 73.9328 65.3198 74.1494 65.1118C74.3661 64.8994 74.6196 64.7369 74.9099 64.6243C75.2046 64.5073 75.5253 64.4488 75.8719 64.4488C76.2229 64.4488 76.5458 64.5094 76.8404 64.6308C77.1394 64.7478 77.3929 64.9233 77.6009 65.1573L77.1784 65.5668C77.0051 65.3848 76.8101 65.2504 76.5934 65.1638C76.3768 65.0728 76.1449 65.0273 75.8979 65.0273C75.6423 65.0273 75.4039 65.0706 75.1829 65.1573C74.9663 65.2439 74.7778 65.3653 74.6174 65.5213C74.4571 65.6773 74.3314 65.8636 74.2404 66.0803C74.1538 66.2926 74.1104 66.5244 74.1104 66.7758C74.1104 67.0271 74.1538 67.2611 74.2404 67.4778C74.3314 67.6901 74.4571 67.8743 74.6174 68.0303C74.7778 68.1863 74.9663 68.3076 75.1829 68.3943C75.4039 68.4809 75.6423 68.5243 75.8979 68.5243C76.1449 68.5243 76.3768 68.4809 76.5934 68.3943C76.8101 68.3033 77.0051 68.1646 77.1784 67.9783L77.6009 68.3878C77.3929 68.6218 77.1394 68.7994 76.8404 68.9208C76.5458 69.0421 76.2208 69.1028 75.8654 69.1028ZM77.7313 69.0508L79.7918 64.5008H80.4353L82.5023 69.0508H81.8198L79.9803 64.8648H80.2403L78.4008 69.0508H77.7313ZM78.6088 67.9133L78.7843 67.3933H81.3453L81.5338 67.9133H78.6088ZM83.856 69.0508V65.0663H82.296V64.5008H86.0595V65.0663H84.4995V69.0508H83.856ZM85.8499 69.0508L87.9104 64.5008H88.5539L90.6209 69.0508H89.9384L88.0989 64.8648H88.3589L86.5194 69.0508H85.8499ZM86.7274 67.9133L86.9029 67.3933H89.4639L89.6524 67.9133H86.7274ZM91.2997 69.0508V64.5008H91.9497V68.4853H94.4132V69.0508H91.2997ZM97.1305 69.1028C96.7839 69.1028 96.461 69.0443 96.162 68.9273C95.8674 68.8103 95.6117 68.6478 95.395 68.4398C95.1784 68.2274 95.0094 67.9804 94.888 67.6988C94.7667 67.4171 94.706 67.1094 94.706 66.7758C94.706 66.4421 94.7667 66.1344 94.888 65.8528C95.0094 65.5711 95.1784 65.3263 95.395 65.1183C95.6117 64.9059 95.8674 64.7413 96.162 64.6243C96.4567 64.5073 96.7795 64.4488 97.1305 64.4488C97.4772 64.4488 97.7957 64.5073 98.086 64.6243C98.3807 64.7369 98.6364 64.8994 98.853 65.1118C99.074 65.3198 99.243 65.5646 99.36 65.8463C99.4814 66.1279 99.542 66.4378 99.542 66.7758C99.542 67.1138 99.4814 67.4236 99.36 67.7053C99.243 67.9869 99.074 68.2339 98.853 68.4463C98.6364 68.6543 98.3807 68.8168 98.086 68.9338C97.7957 69.0464 97.4772 69.1028 97.1305 69.1028ZM97.1305 68.5243C97.3819 68.5243 97.6137 68.4809 97.826 68.3943C98.0427 68.3076 98.229 68.1863 98.385 68.0303C98.5454 67.8699 98.6689 67.6836 98.7555 67.4713C98.8465 67.2589 98.892 67.0271 98.892 66.7758C98.892 66.5244 98.8465 66.2926 98.7555 66.0803C98.6689 65.8679 98.5454 65.6838 98.385 65.5278C98.229 65.3674 98.0427 65.2439 97.826 65.1573C97.6137 65.0706 97.3819 65.0273 97.1305 65.0273C96.8749 65.0273 96.6387 65.0706 96.422 65.1573C96.2097 65.2439 96.0234 65.3674 95.863 65.5278C95.7027 65.6838 95.577 65.8679 95.486 66.0803C95.3994 66.2926 95.356 66.5244 95.356 66.7758C95.356 67.0271 95.3994 67.2589 95.486 67.4713C95.577 67.6836 95.7027 67.8699 95.863 68.0303C96.0234 68.1863 96.2097 68.3076 96.422 68.3943C96.6387 68.4809 96.8749 68.5243 97.1305 68.5243ZM102.59 69.1028C102.239 69.1028 101.916 69.0464 101.621 68.9338C101.326 68.8168 101.071 68.6543 100.854 68.4463C100.637 68.2339 100.468 67.9869 100.347 67.7053C100.226 67.4236 100.165 67.1138 100.165 66.7758C100.165 66.4378 100.226 66.1279 100.347 65.8463C100.468 65.5646 100.637 65.3198 100.854 65.1118C101.075 64.8994 101.333 64.7369 101.628 64.6243C101.922 64.5073 102.247 64.4488 102.603 64.4488C102.962 64.4488 103.292 64.5073 103.591 64.6243C103.89 64.7413 104.143 64.9168 104.351 65.1508L103.948 65.5538C103.762 65.3718 103.558 65.2396 103.337 65.1573C103.12 65.0706 102.884 65.0273 102.629 65.0273C102.369 65.0273 102.126 65.0706 101.901 65.1573C101.68 65.2439 101.487 65.3653 101.322 65.5213C101.162 65.6773 101.036 65.8636 100.945 66.0803C100.858 66.2926 100.815 66.5244 100.815 66.7758C100.815 67.0228 100.858 67.2546 100.945 67.4713C101.036 67.6836 101.162 67.8699 101.322 68.0303C101.487 68.1863 101.68 68.3076 101.901 68.3943C102.122 68.4809 102.362 68.5243 102.622 68.5243C102.865 68.5243 103.097 68.4874 103.318 68.4138C103.543 68.3358 103.751 68.2079 103.942 68.0303L104.312 68.5243C104.087 68.7149 103.822 68.8601 103.519 68.9598C103.22 69.0551 102.91 69.1028 102.59 69.1028ZM103.688 68.4398V66.7498H104.312V68.5243L103.688 68.4398Z" fill="white"/>
</svg>
