<svg width="28" height="29" viewBox="0 0 28 29" fill="none" xmlns="http://www.w3.org/2000/svg">
<path d="M19.104 4.25242C20.4565 4.25646 21.7526 4.79556 22.709 5.75197C23.6654 6.70838 24.2045 8.00439 24.2085 9.35695V19.5649C24.2045 20.9175 23.6654 22.2135 22.709 23.1699C21.7526 24.1263 20.4565 24.6654 19.104 24.6695H8.89602C7.54345 24.6654 6.24744 24.1263 5.29103 23.1699C4.33462 22.2135 3.79552 20.9175 3.79148 19.5649V9.35695C3.79552 8.00439 4.33462 6.70838 5.29103 5.75197C6.24744 4.79556 7.54345 4.25646 8.89602 4.25242H19.104ZM19.104 2.21094H8.89602C4.96562 2.21094 1.75 5.42656 1.75 9.35695V19.5649C1.75 23.4953 4.96562 26.7109 8.89602 26.7109H19.104C23.0344 26.7109 26.25 23.4953 26.25 19.5649V9.35695C26.25 5.42656 23.0344 2.21094 19.104 2.21094Z" fill="white"/>
<path d="M20.6352 9.35742C20.3324 9.35742 20.0363 9.26762 19.7845 9.09936C19.5327 8.9311 19.3364 8.69196 19.2205 8.41216C19.1046 8.13236 19.0743 7.82447 19.1334 7.52744C19.1925 7.23041 19.3383 6.95756 19.5525 6.74342C19.7666 6.52927 20.0395 6.38343 20.3365 6.32435C20.6335 6.26526 20.9414 6.29559 21.2212 6.41148C21.501 6.52738 21.7402 6.72364 21.9084 6.97546C22.0767 7.22727 22.1665 7.52332 22.1665 7.82617C22.1669 8.02738 22.1276 8.22669 22.0508 8.41267C21.974 8.59864 21.8612 8.76762 21.719 8.90989C21.5767 9.05217 21.4077 9.16494 21.2217 9.24174C21.0358 9.31854 20.8364 9.35785 20.6352 9.35742ZM14 10.3779C14.8076 10.3779 15.5972 10.6174 16.2687 11.0661C16.9402 11.5148 17.4636 12.1525 17.7727 12.8987C18.0818 13.6449 18.1626 14.4659 18.0051 15.2581C17.8475 16.0502 17.4586 16.7778 16.8875 17.3489C16.3164 17.92 15.5888 18.3089 14.7967 18.4665C14.0045 18.624 13.1835 18.5432 12.4373 18.2341C11.6911 17.925 11.0534 17.4016 10.6047 16.7301C10.156 16.0586 9.91649 15.269 9.91649 14.4614C9.91764 13.3787 10.3482 12.3408 11.1138 11.5752C11.8794 10.8096 12.9173 10.379 14 10.3779ZM14 8.33641C12.7886 8.33641 11.6044 8.69563 10.5971 9.36865C9.58988 10.0417 8.80483 10.9983 8.34124 12.1175C7.87765 13.2367 7.75636 14.4682 7.99269 15.6563C8.22903 16.8445 8.81238 17.9358 9.66897 18.7924C10.5256 19.649 11.6169 20.2324 12.8051 20.4687C13.9932 20.7051 15.2247 20.5838 16.3439 20.1202C17.4631 19.6566 18.4197 18.8715 19.0928 17.8643C19.7658 16.857 20.125 15.6728 20.125 14.4614C20.125 12.837 19.4797 11.279 18.331 10.1304C17.1824 8.98172 15.6245 8.33641 14 8.33641Z" fill="white"/>
</svg>
