<svg width="16" height="17" viewBox="0 0 16 17" fill="none" xmlns="http://www.w3.org/2000/svg">
<path d="M10 6.23047V4.73047C10 4.33264 9.8683 3.95111 9.63388 3.66981C9.39946 3.3885 9.08152 3.23047 8.75 3.23047H2.75C2.41848 3.23047 2.10054 3.3885 1.86612 3.66981C1.6317 3.95111 1.5 4.33264 1.5 4.73047V13.7305C1.5 14.1283 1.6317 14.5098 1.86612 14.7911C2.10054 15.0724 2.41848 15.2305 2.75 15.2305H8.75C9.08152 15.2305 9.39946 15.0724 9.63388 14.7911C9.8683 14.5098 10 14.1283 10 13.7305V12.2305M12 6.23047L14.5 9.23047M14.5 9.23047L12 12.2305M14.5 9.23047H5.96875" stroke="#383838" stroke-width="1.18" stroke-linecap="round" stroke-linejoin="round"/>
</svg>
