<svg width="140" height="58" viewBox="0 0 140 58" fill="none" xmlns="http://www.w3.org/2000/svg">
<path d="M45.7812 2.25297C46.6125 3.01448 46.9235 3.82725 46.714 4.69131C46.422 5.69956 45.8674 6.61217 45.107 7.33583C44.1325 8.32664 43.0563 9.21195 41.8963 9.97709C40.6176 10.8499 39.3085 11.6626 37.9687 12.4154C36.629 13.1682 35.3853 13.8424 34.2376 14.4381C33.079 15.0229 32.2062 15.4712 31.6192 15.7833C32.6635 15.9127 33.6603 16.2959 34.5223 16.8993C35.3264 17.4351 35.9709 18.178 36.3879 19.0496C36.8064 20.0217 36.9205 21.0978 36.7152 22.136C36.4887 23.2422 36.077 24.3023 35.4977 25.2715C34.8623 26.3482 34.1057 27.3486 33.2426 28.2531C32.3562 29.1917 31.4129 30.0748 30.4181 30.8976C29.4297 31.7093 28.4554 32.4348 27.4954 33.0741C26.7053 33.6169 25.8822 34.1099 25.0308 34.5502C22.5038 35.914 19.869 37.0678 17.1529 37.9999C14.9078 38.7817 12.5881 39.3301 10.2306 39.6364C8.40348 39.8835 6.5487 39.8393 4.73539 39.5054C3.16001 39.1782 1.96758 38.5476 1.15807 37.6137C0.348566 36.6798 -0.0365491 35.4688 0.00272604 33.9807C0.0376373 32.4883 0.608218 30.7089 1.71447 28.6426C1.85193 28.4004 2.17268 28.2269 2.67344 28.1222C3.17712 28.0189 3.69133 27.976 4.20517 27.9946C4.65707 27.9932 5.10383 28.0904 5.51434 28.2793C5.858 28.4528 5.94637 28.695 5.7729 29.0059C5.56671 29.3855 5.23614 29.919 4.79103 30.6129C4.32751 31.332 3.92045 32.0859 3.57349 32.8679C3.22362 33.6344 2.9792 34.4447 2.8469 35.2768C2.77375 35.6367 2.78819 36.0089 2.88901 36.3621C2.98983 36.7153 3.17408 37.039 3.42621 37.306C3.91061 37.8581 4.74848 38.1177 5.93982 38.085C7.37761 38.0041 8.79838 37.7333 10.1652 37.2799C11.9592 36.7138 13.7167 36.0383 15.4281 35.2572C17.36 34.3831 19.2465 33.412 21.0804 32.3475C22.9634 31.2566 24.7515 30.1165 26.4447 28.9273C28.0004 27.8465 29.473 26.6507 30.8501 25.35C31.95 24.3386 32.9019 23.1773 33.6779 21.9004C34.3151 20.7963 34.4962 19.8286 34.2212 18.9973C34.1187 18.6396 33.9192 18.3173 33.6448 18.066C33.3704 17.8148 33.0319 17.6443 32.6666 17.5736C31.7347 17.3808 30.7741 17.3719 29.8388 17.5474C28.6672 17.7429 27.5142 18.0375 26.3924 18.4278C25.1814 18.8445 24.0151 19.2678 22.8936 19.6977C21.7721 20.1275 20.7782 20.5345 19.912 20.9185C19.3208 21.1915 18.7155 21.4329 18.0988 21.6418C17.3683 22.7111 16.7268 23.8386 16.1808 25.0129C15.5917 26.2566 15.0211 27.4316 14.4691 28.5379C14.4415 28.6146 14.3863 28.6782 14.3142 28.7163C14.2422 28.7545 14.1585 28.7644 14.0796 28.7441C13.8687 28.7029 13.667 28.6242 13.4839 28.5117C13.2798 28.3938 13.0889 28.2545 12.9144 28.096C12.7877 28.0062 12.677 27.8955 12.5871 27.7687C12.4704 27.5336 12.4195 27.2712 12.4399 27.0094C12.4417 26.6535 12.468 26.2981 12.5184 25.9457C12.5792 25.5529 12.6622 25.1639 12.7672 24.7805C12.8719 24.3812 12.9766 24.0278 13.0945 23.7168C12.7595 23.8788 12.402 23.9892 12.034 24.0441C11.6467 24.1135 11.2494 24.1046 10.8656 24.0179C10.713 23.9908 10.5703 23.9238 10.452 23.8238C10.3336 23.7238 10.2437 23.5943 10.1914 23.4485C10.0888 23.1539 10.2274 22.6957 10.607 22.0738C10.8185 21.804 11.0837 21.581 11.386 21.4192C11.7984 21.1596 12.2468 20.8999 12.7312 20.6403L14.0403 19.9432C14.4396 19.7337 14.6949 19.5962 14.7931 19.5275C15.2088 18.8729 15.5786 18.2183 15.9092 17.5637C16.2397 16.9091 16.5474 16.2938 16.842 15.7243C17.1365 15.1549 17.3918 14.6705 17.6176 14.2712C17.7682 13.9714 17.9698 13.7 18.2133 13.4693C18.4092 13.3485 18.6385 13.2935 18.8679 13.3122C19.1902 13.3156 19.5114 13.3507 19.8269 13.4169C20.1482 13.478 20.462 13.5735 20.7629 13.7017C20.9722 13.7796 21.1604 13.9051 21.3128 14.0682C21.4325 14.2769 21.4955 14.5133 21.4955 14.7539C21.4955 14.9945 21.4325 15.2309 21.3128 15.4396C21.0706 15.9764 20.8611 16.4869 20.6909 16.9713C21.6923 16.6791 22.6713 16.3148 23.6202 15.8814C25.0865 15.2596 26.7535 14.4959 28.6212 13.5904C30.489 12.6849 32.4069 11.703 34.3751 10.6448C36.3388 9.57342 38.1018 8.52827 39.6641 7.5093C40.9563 6.7015 42.1559 5.75432 43.2414 4.68476C44.0728 3.81198 44.28 3.15739 43.8633 2.721C43.3789 2.23661 42.4821 2.01078 41.1664 2.04678C39.5491 2.12364 37.9432 2.35822 36.3715 2.74719C34.4907 3.18358 32.4178 3.77925 30.153 4.53421C27.8881 5.28916 25.5905 6.16194 23.2602 7.15255C20.9277 8.13661 18.6366 9.19049 16.387 10.3142C14.1374 11.4379 12.0897 12.5802 10.2437 13.741C8.58613 14.7598 7.00147 15.8928 5.50125 17.1317C4.19208 18.238 3.32802 19.2755 2.90909 20.2443C2.76726 20.5192 2.52507 20.493 2.1825 20.1657C1.78623 19.7434 1.51636 19.2184 1.40354 18.6503C1.23077 17.8457 1.23972 17.0127 1.42972 16.212C1.61955 15.2803 2.21632 14.365 3.22002 13.466C4.89018 11.9796 6.70477 10.6639 8.63672 9.53851C11.0467 8.09684 13.5395 6.79851 16.1023 5.65027C18.8531 4.40781 21.6736 3.32593 24.5497 2.41008C27.3103 1.51535 30.1371 0.839038 33.0037 0.387405C35.4531 -0.019348 37.945 -0.106262 40.4169 0.128844C42.6468 0.371041 44.435 1.07908 45.7812 2.25297Z" fill="#FD035B"/>
<path d="M51.5402 20.9197C52.1948 20.4353 52.557 20.2793 52.6268 20.4517C52.6956 20.6252 52.5778 20.9524 52.2636 21.4336C51.8713 22.0686 51.4338 22.6746 50.9544 23.2468C50.3728 23.9479 49.7393 24.6043 49.0594 25.2105C48.3809 25.8227 47.6529 26.3778 46.8829 26.8699C46.2427 27.3061 45.5197 27.6058 44.7587 27.7503C44.1522 27.7975 43.5439 27.6846 42.9946 27.423C42.2344 27.1097 41.5268 26.6814 40.8967 26.1531C40.2313 25.6128 39.6615 24.9645 39.2111 24.2352C38.776 23.5793 38.6086 22.7818 38.7431 22.0063C38.8587 21.3577 39.1256 20.7455 39.522 20.2193C39.9248 19.6614 40.3954 19.1557 40.9228 18.7138C41.4015 18.3023 41.9291 17.9516 42.4939 17.6697C42.9151 17.4436 43.3812 17.3139 43.8587 17.29C44.2272 17.3027 44.5892 17.3907 44.9224 17.5486C45.3163 17.7196 45.6834 17.9467 46.0123 18.2228C46.3374 18.4867 46.6066 18.8127 46.8043 19.1818C46.9895 19.5219 47.0714 19.9086 47.04 20.2946C46.8996 20.7917 46.631 21.2432 46.261 21.6038C45.7914 22.1276 45.2897 22.6217 44.7587 23.0831C44.064 23.6931 43.3363 24.2645 42.579 24.7949C43.3405 25 44.5591 24.7578 46.2348 24.0683C48.1301 23.2489 49.913 22.1909 51.5402 20.9197ZM45.4231 19.9378C45.2824 19.8331 44.9649 19.9117 44.4642 20.1702C43.933 20.448 43.4364 20.7874 42.9848 21.1816C42.5151 21.579 42.1051 22.0419 41.7673 22.5562C41.44 23.0569 41.3614 23.4791 41.5349 23.8261C41.8947 23.6144 42.2343 23.37 42.5495 23.0962C43.0186 22.7166 43.4856 22.302 43.9503 21.8525C44.4183 21.4041 44.8078 20.995 45.1187 20.6317C45.4297 20.2684 45.5246 20.036 45.4231 19.9346V19.9378Z" fill="#FD035B"/>
<path d="M106.045 49.24C106.7 48.7556 107.063 48.6018 107.132 48.772C107.201 48.9422 107.083 49.276 106.772 49.7539C106.38 50.3905 105.943 50.9976 105.463 51.5704C104.881 52.2699 104.248 52.9262 103.571 53.5341C102.891 54.1456 102.162 54.7006 101.391 55.1935C100.75 55.6283 100.028 55.9278 99.2672 56.0739C98.6607 56.1194 98.0528 56.0066 97.5031 55.7466C96.7434 55.4321 96.036 55.0039 95.4051 54.4767C94.7404 53.9356 94.1708 53.2874 93.7195 52.5588C93.2851 51.9027 93.1177 51.1054 93.2515 50.3299C93.3671 49.6803 93.634 49.067 94.0305 48.5396C94.4333 47.9827 94.9039 47.4781 95.4313 47.0373C95.9134 46.6276 96.4444 46.2792 97.0121 45.9998C97.4361 45.7704 97.9054 45.6374 98.3867 45.6104C98.7544 45.6244 99.1153 45.7135 99.4472 45.8722C99.8404 46.0362 100.208 46.2568 100.537 46.5268C100.855 46.7936 101.118 47.1192 101.313 47.4857C101.498 47.8271 101.58 48.2148 101.548 48.6018C101.407 49.0984 101.138 49.5496 100.769 49.911C100.3 50.4337 99.7981 50.9267 99.2672 51.3871C98.5732 51.9981 97.8455 52.5695 97.0874 53.0988C97.85 53.305 99.0675 53.0661 100.743 52.3722C102.637 51.5585 104.419 50.5059 106.045 49.24ZM99.9283 48.2581C99.7876 48.1534 99.4701 48.232 98.9693 48.4905C98.4396 48.7706 97.9433 49.1099 97.49 49.5019C97.021 49.9001 96.6111 50.3629 96.2724 50.8765C95.9451 51.3773 95.8666 51.8027 96.0401 52.1464C96.3989 51.936 96.7375 51.6928 97.0514 51.4198C97.5161 51.0401 97.9842 50.6278 98.4489 50.1761C98.9137 49.7244 99.3064 49.3219 99.6174 48.9586C99.9283 48.5953 100.023 48.3596 99.9218 48.2549L99.9283 48.2581Z" fill="#FD035B"/>
<path d="M69.1123 20.7649C69.5967 20.3154 69.9862 20.2063 70.2807 20.4376C70.5753 20.6688 70.4804 21.0747 69.996 21.6551C69.7167 21.9649 69.3359 22.4231 68.8537 23.0297C68.3715 23.6363 67.8708 24.2505 67.3515 24.8724C66.8633 25.4488 66.3409 25.9953 65.787 26.5088C65.4294 26.894 64.9785 27.1803 64.4778 27.3402C63.8385 27.4252 63.1881 27.3533 62.5828 27.1307C61.8167 26.9152 61.1028 26.5455 60.4849 26.0441C60.0354 26.3539 59.599 26.6561 59.1757 26.9507C58.7961 27.2297 58.3768 27.4503 57.932 27.6053C57.4657 27.672 56.9912 27.6542 56.5312 27.5529C55.9575 27.4424 55.4051 27.2413 54.8947 26.9572C54.3713 26.6732 53.8917 26.3149 53.471 25.8935C53.0856 25.4909 52.8174 24.9907 52.6953 24.4469C52.5578 23.8578 52.7051 23.1574 53.1371 22.3457C53.578 21.521 54.1081 20.7472 54.7179 20.0383C55.3043 19.3472 55.9553 18.7138 56.6621 18.1465C57.3363 17.613 57.8632 17.325 58.2429 17.2923C58.5459 17.2604 58.8521 17.2781 59.1495 17.3446C59.5208 17.4198 59.8814 17.5407 60.223 17.7047C60.5743 17.8714 60.904 18.0802 61.2049 18.3265C61.4774 18.541 61.6839 18.828 61.8006 19.1546C62.285 18.7389 62.6973 18.5491 63.0443 18.5851C63.3192 18.6538 63.6138 18.7389 63.9247 18.8436C64.2199 18.9412 64.5067 19.0627 64.7822 19.2069C65.0319 19.3352 65.2542 19.5109 65.4368 19.7241C65.5173 19.8152 65.5774 19.9225 65.613 20.0388C65.6486 20.1551 65.6588 20.2777 65.643 20.3983C65.6006 20.7994 65.4576 21.1832 65.2273 21.5144C64.9524 21.9791 64.6589 22.4537 64.3469 22.9381C64.0349 23.4225 63.7752 23.8589 63.568 24.2473C63.3618 24.6302 63.3258 24.8691 63.4665 24.9738C63.6072 25.0786 63.7938 24.9738 64.1669 24.7415C64.54 24.5091 64.9688 24.2047 65.4761 23.8087C65.9834 23.4127 66.5725 22.9512 67.2107 22.434C67.8489 21.9169 68.4904 21.354 69.1123 20.7649ZM56.0991 25.743C56.481 25.9503 56.9566 25.8412 57.5261 25.4157C58.1386 24.9415 58.6884 24.3917 59.1626 23.7792C59.6593 23.146 60.0975 22.469 60.4718 21.7566C60.7632 21.2837 60.9485 20.7533 61.0151 20.2019C60.9912 20.1321 60.9519 20.0685 60.9001 20.0159C60.8482 19.9633 60.7852 19.9231 60.7157 19.8983C60.6462 19.8734 60.572 19.8646 60.4986 19.8724C60.4252 19.8802 60.3545 19.9044 60.2917 19.9433C59.8682 20.1324 59.4815 20.395 59.1495 20.719C58.6881 21.15 58.2634 21.6185 57.8796 22.1198C57.4797 22.6266 57.1072 23.1543 56.7635 23.7007C56.4907 24.1281 56.2574 24.5794 56.0664 25.0491C55.9191 25.4386 55.9289 25.6743 56.0991 25.743Z" fill="#FD035B"/>
<path d="M73.9349 17.4478C74.0807 17.3593 74.2433 17.3022 74.4124 17.2802C74.5815 17.2583 74.7533 17.2718 74.9168 17.3201C75.3378 17.4086 75.7413 17.5656 76.1114 17.7849C76.484 18.0053 76.8309 18.2665 77.1457 18.5638C77.4006 18.7685 77.583 19.0496 77.666 19.3657C77.7348 19.5392 77.666 19.8075 77.4566 20.1708C77.2194 20.5791 76.9513 20.9686 76.6547 21.336C76.3274 21.7517 75.9805 22.1837 75.6172 22.6452C75.2539 23.1067 74.943 23.483 74.6844 23.8136C74.4898 24.0417 74.3248 24.2936 74.1935 24.5631C74.1215 24.7366 74.2262 24.7726 74.5044 24.6679C74.8636 24.4876 75.2017 24.268 75.5125 24.0133C75.9445 23.686 76.4223 23.2965 76.9395 22.8481C77.4566 22.3997 77.9966 21.9284 78.553 21.4146C79.1094 20.9007 79.6233 20.4327 80.1077 19.9876C80.592 19.5424 81.0077 19.1595 81.3514 18.8486C81.5726 18.6334 81.8162 18.4425 82.078 18.2791C82.3038 18.2476 82.5339 18.2655 82.7522 18.3315C83.0525 18.4106 83.3401 18.5318 83.6064 18.6915C83.8998 18.866 84.1629 19.0871 84.3854 19.3461C84.5958 19.5836 84.7631 19.8561 84.8796 20.1512C84.981 20.4294 84.8534 20.8058 84.4901 21.3164C84.1268 21.8269 83.7275 22.3277 83.2955 22.8481C82.8635 23.3685 82.4936 23.83 82.1827 24.2456C81.8718 24.6613 81.7998 24.9395 81.9732 25.077C82.1467 25.2144 82.4838 25.0508 83.0893 24.6875C83.6948 24.3242 84.3756 23.8758 85.1381 23.339C85.9007 22.8023 86.6306 22.259 87.3408 21.7026C88.0511 21.1462 88.5583 20.7371 88.8693 20.4589C89.4911 19.9057 89.9232 19.7781 90.1784 20.0694C90.4337 20.3607 90.3683 20.7862 90.0246 21.3393C89.8064 21.5815 89.3995 22.0179 88.8038 22.6484C88.2016 23.303 87.5339 23.9576 86.8106 24.6449C86.1185 25.306 85.3909 25.9288 84.6308 26.5105C83.9075 27.0636 83.3217 27.3746 82.9224 27.4433C82.4515 27.5488 81.9621 27.5398 81.4954 27.4171C80.986 27.3036 80.4985 27.108 80.052 26.8378C79.6121 26.5744 79.2166 26.243 78.8803 25.8559C78.5747 25.522 78.3684 25.1094 78.2846 24.6646C78.2158 24.4184 78.2158 24.158 78.2846 23.9118C78.3315 23.7398 78.4009 23.5748 78.4908 23.4209C78.0424 23.8005 77.5482 24.2227 77.0147 24.6908C76.4813 25.1588 75.951 25.5974 75.4339 25.9999C74.9704 26.3741 74.4851 26.7205 73.9807 27.0375C73.6446 27.2739 73.2514 27.4163 72.8418 27.4498C72.5401 27.4327 72.2424 27.3721 71.9581 27.2698C71.5705 27.1455 71.1974 26.9798 70.8453 26.7756C70.495 26.5774 70.166 26.3438 69.8634 26.0785C69.5949 25.8584 69.4044 25.5577 69.3201 25.221C69.283 24.9111 69.4292 24.4104 69.7587 23.7187C70.086 23.0281 70.4852 22.2852 70.9533 21.4898C71.4196 20.693 71.9299 19.9226 72.4817 19.1824C72.9261 18.5718 73.4117 17.9923 73.9349 17.4478Z" fill="#FD035B"/>
<path d="M91.8223 15.008C91.9958 14.8346 93.0824 14.7135 95.0952 14.6447C95.5835 14.21 96.1031 13.8118 96.6499 13.4534C97.0617 13.1652 97.5483 13.0026 98.0507 12.9854C98.5396 13.0112 99.0094 13.1834 99.3991 13.4796C99.847 13.7736 100.234 14.1514 100.538 14.5924C102.303 14.5924 104.187 14.5749 106.19 14.54C108.194 14.5051 110.23 14.4571 112.301 14.396C114.919 14.3283 117.494 14.2247 120.025 14.0851C122.556 13.9454 124.837 13.8069 126.869 13.6694C128.909 13.5319 130.602 13.4108 131.948 13.3061C133.297 13.2014 134.125 13.1523 134.436 13.1523C135.094 13.1621 135.747 13.2578 136.38 13.437C137.045 13.61 137.695 13.8354 138.324 14.1112C138.823 14.3139 139.287 14.5932 139.699 14.9393C140.026 15.2339 140.088 15.5022 139.879 15.7444C139.741 15.8819 139.068 15.9594 137.859 15.9768C136.651 15.9943 135.052 15.9943 133.064 15.9768C131.075 15.9615 128.776 15.9354 126.168 15.8983C123.561 15.8612 120.795 15.835 117.872 15.8197C114.952 15.8044 111.972 15.8044 108.93 15.8197C105.888 15.835 102.933 15.9059 100.064 16.0324C99.5552 16.4169 99.071 16.8323 98.6136 17.2762C98.0245 17.8293 97.4223 18.4348 96.8004 19.0894C96.1786 19.744 95.5633 20.4378 94.9578 21.1644C94.4117 21.8102 93.9015 22.4855 93.4293 23.1871C93.0741 23.6928 92.7869 24.243 92.5751 24.8235C92.418 25.2916 92.4605 25.6123 92.7027 25.7825C92.9449 25.9527 93.3933 25.7825 94.1559 25.3178C94.9185 24.853 95.7367 24.3359 96.6171 23.7107C97.4976 23.0856 98.3453 22.4736 99.1569 21.8714C99.6973 21.4517 100.26 21.0617 100.843 20.7029C101.464 20.2883 101.914 20.2022 102.191 20.4444C102.466 20.6866 102.45 21.0138 102.139 21.4262C101.964 21.6313 101.549 22.0677 100.895 22.7354C100.168 23.4717 99.3975 24.1636 98.5874 24.8072C97.7212 25.5072 96.8033 26.1407 95.8415 26.7022C94.8901 27.2542 94.0686 27.5302 93.3769 27.5302C91.9587 27.5302 91.0346 27.1419 90.6048 26.3651C90.1544 25.4681 90.0172 24.446 90.2153 23.462C90.4362 22.1608 90.8556 20.9014 91.459 19.7276C92.0816 18.4571 92.8282 17.2511 93.6879 16.1274C92.0645 15.7957 91.4426 15.4226 91.8223 15.008Z" fill="#FD035B"/>
<path d="M118.21 20.4975C118.694 20.0818 119.09 20.0032 119.404 20.2651C119.718 20.5269 119.627 20.9197 119.142 21.4826C118.787 21.8627 118.407 22.2181 118.003 22.5463C117.382 23.0787 116.595 23.7867 115.644 24.6704C114.692 25.5541 113.601 26.5818 112.371 27.7535C111.144 28.9318 109.875 30.2104 108.561 31.5894C107.126 33.0973 105.841 34.7415 104.725 36.4988C103.72 38.1058 105.38 35.1896 104.725 36.4988C104.071 37.808 103.02 40.0008 102.621 40.8813C102.221 41.7617 101.868 42.2723 101.557 42.4097C101.178 42.5618 100.774 42.6406 100.366 42.6421C99.9107 42.6646 99.4553 42.6126 99.0171 42.4883C98.6654 42.409 98.3533 42.2071 98.1367 41.9188C97.9633 41.6569 98.0516 41.2871 98.3953 40.8027C98.6375 40.423 99.1644 39.5415 99.9761 38.1582C100.788 36.777 99.783 38.4429 100.889 36.5774C101.996 34.7118 103.197 32.7153 104.489 30.5912C105.782 28.467 107.036 26.4673 108.247 24.6017C107.556 25.2563 106.882 25.8454 106.224 26.3658C105.566 26.8862 105.033 27.1415 104.617 27.1415C104.333 27.1263 104.054 27.0656 103.789 26.9615C103.439 26.8359 103.099 26.6815 102.774 26.5C102.422 26.3079 102.093 26.0762 101.793 25.8094C101.524 25.5911 101.333 25.2913 101.249 24.9552C101.213 24.6803 101.344 24.2024 101.635 23.5282C101.968 22.7791 102.349 22.0521 102.774 21.3517C103.239 20.576 103.74 19.8134 104.277 19.0606C104.702 18.4428 105.199 17.8771 105.756 17.3751C105.877 17.2857 106.017 17.2253 106.165 17.1986C106.313 17.172 106.466 17.1797 106.61 17.2213C107.002 17.2981 107.377 17.448 107.713 17.6631C108.074 17.8861 108.405 18.1557 108.695 18.465C108.938 18.6887 109.11 18.9789 109.189 19.2996C109.294 19.545 109.121 19.9738 108.672 20.6087C108.224 21.2437 107.746 21.8426 107.245 22.4481C106.745 23.0536 106.339 23.5707 106.028 24.0028C105.717 24.4348 105.75 24.5821 106.132 24.4446C106.516 24.2717 106.874 24.0447 107.193 23.7704C107.629 23.4235 108.096 23.0176 108.594 22.5529C109.091 22.0881 109.601 21.595 110.122 21.0735C110.643 20.5564 111.124 20.0916 111.575 19.6727C111.812 19.4734 112.031 19.2544 112.23 19.0181C112.33 18.878 112.464 18.7654 112.619 18.6908C112.9 18.6617 113.183 18.6975 113.447 18.7955C113.756 18.8985 114.052 19.0381 114.328 19.2112C114.597 19.3783 114.827 19.6016 115.002 19.8658C115.162 20.0852 115.252 20.3474 115.261 20.6186C115.261 20.8935 115.055 21.2895 114.639 21.8099C114.223 22.3303 113.696 22.9751 113.058 23.754C112.42 24.533 111.677 25.4461 110.829 26.5C109.911 27.6541 109.054 28.8558 108.263 30.1002C108.368 29.9955 108.754 29.5831 109.428 28.8565C110.103 28.1299 110.934 27.2757 111.919 26.2905C112.904 25.3054 113.958 24.2941 115.081 23.2565C116.203 22.219 117.241 21.2928 118.21 20.4975Z" fill="#FD035B"/>
<path d="M84.7019 30.2362C84.8918 30.1674 84.9736 30.2918 84.9441 30.6027C84.8734 31.0099 84.7185 31.3979 84.4892 31.7417C84.1743 32.25 83.7923 32.7134 83.3535 33.1196C82.8398 33.5995 82.2387 33.9762 81.5828 34.2291C80.5367 34.557 79.4664 34.8021 78.3819 34.9623C76.8545 35.2241 75.2323 35.4216 73.5151 35.5547C72.1753 35.8711 70.5389 36.3293 68.6057 36.9293C66.6725 37.5293 64.5341 38.2232 62.1907 39.0109C59.8691 39.792 57.4286 40.6473 54.8692 41.5769C52.3098 42.5064 49.7143 43.4828 47.0829 44.5061C44.4514 45.5229 41.8593 46.5583 39.3064 47.6121C36.7535 48.666 34.3446 49.6915 32.0798 50.6887C35.2 50.4705 38.33 50.3254 41.4698 50.2534C44.5982 50.1951 47.7269 50.3526 50.8337 50.7247C51.4162 50.812 52.0174 50.8949 52.637 50.9734C53.238 51.0465 53.8331 51.1624 54.4175 51.3204C54.9868 51.4737 55.536 51.6934 56.054 51.975C56.5802 52.2655 57.0475 52.6518 57.4319 53.1139C57.7985 53.5427 57.9817 53.8471 57.9817 54.0238C57.9817 54.2006 57.8705 54.2922 57.6544 54.2987C57.3589 54.299 57.0645 54.2638 56.7773 54.194L55.6089 53.9485C52.8858 53.411 50.1133 53.1652 47.3382 53.2154C44.166 53.2465 40.9976 53.4464 37.8467 53.8143C34.5912 54.1875 31.3848 54.6959 28.2275 55.3395C25.0703 55.9832 22.1977 56.6683 19.6099 57.3949C18.9379 57.5717 18.6313 57.3927 18.6902 56.8582C18.7524 56.3214 19.1353 55.6799 19.839 54.9271C20.7451 54.0293 21.7825 53.2744 22.9156 52.6885C24.436 51.8903 26.0964 51.3936 27.8053 51.2255C30.9146 49.5497 34.0621 48.0223 37.2477 46.6434C40.4334 45.2644 43.6638 43.9661 46.9389 42.7486C50.2118 41.531 53.5066 40.3517 56.8231 39.2105C60.1397 38.0694 63.4726 36.9162 66.8219 35.751L58.5119 35.3288C55.874 35.1979 53.2556 35.1325 50.6569 35.1325C48.0582 35.1325 45.4235 35.2317 42.7528 35.4303C40.0821 35.631 37.2456 35.9791 34.2432 36.4744C34.0599 36.5071 33.9748 36.3598 33.9944 36.026C34.0322 35.616 34.1513 35.2177 34.3446 34.8543C34.5959 34.3657 34.9279 33.9231 35.3265 33.5451C35.8138 33.0865 36.4313 32.7903 37.0939 32.6974C39.6418 32.2731 42.2162 32.027 44.7984 31.961C47.4167 31.8912 50.0623 31.9086 52.7352 32.0134C55.4081 32.1181 58.1007 32.2436 60.8128 32.3897C63.5206 32.5338 66.211 32.5872 68.8839 32.5501C71.5527 32.5123 74.2175 32.3298 76.8665 32.0035C79.5287 31.6653 82.1524 31.0735 84.7019 30.2362Z" fill="#FD035B"/>
<path d="M66.692 44.9209C67.1536 44.9185 67.6068 45.0443 68.0012 45.2842C68.1836 45.3856 68.341 45.5263 68.4622 45.6961C68.5834 45.866 68.6651 46.0607 68.7016 46.2661C69.0959 46.3357 69.4708 46.4885 69.8015 46.7142C70.1322 46.9399 70.4111 47.2335 70.6195 47.5753C71.0033 48.2515 71.1658 49.0309 71.0843 49.8041C71.9457 49.9066 72.8185 49.7625 73.6012 49.3885C74.3293 49.0702 74.976 48.5913 75.4929 47.9877C75.7 47.7324 75.9559 47.521 76.2457 47.3658C76.3264 47.3166 76.4172 47.2863 76.5113 47.2772C76.6055 47.2681 76.7004 47.2805 76.789 47.3134C76.8578 47.351 76.914 47.4079 76.9507 47.4772C76.9874 47.5464 77.0029 47.6249 76.9952 47.7029C76.9841 47.9352 76.9131 48.1607 76.789 48.3575C76.1689 49.3615 75.3476 50.2263 74.3769 50.8973C73.323 51.6599 71.932 52.141 70.2039 52.3505C69.7418 53.0557 69.1732 53.685 68.5183 54.216C67.8076 54.789 66.9881 55.2121 66.1094 55.4598C65.6094 55.5984 65.081 55.5984 64.581 55.4598C63.9504 55.3116 63.3524 55.0486 62.8169 54.6841C62.2464 54.3029 61.7606 53.8082 61.3899 53.2309C61.0126 52.6505 60.8656 51.9502 60.9775 51.2671C61.0613 50.5234 61.2623 49.7977 61.5732 49.1168C61.8957 48.3821 62.3139 47.6932 62.8169 47.068C63.3014 46.4598 63.8898 45.9423 64.5548 45.5395C65.1952 45.1373 65.9358 44.923 66.692 44.9209ZM64.617 53.4731C64.7894 53.7524 65.1527 53.7524 65.7069 53.4731C66.3228 53.1457 66.8687 52.7009 67.3139 52.1639C66.9145 51.8635 66.5804 51.4849 66.332 51.0511C66.0435 50.5451 65.8505 49.9904 65.7625 49.4147C65.2189 50.125 64.7985 50.9216 64.5188 51.7712C64.2744 52.561 64.3072 53.1283 64.617 53.4731Z" fill="#FD035B"/>
<path d="M78.5929 46.3169C78.6883 46.2175 78.8075 46.1439 78.9392 46.1033C79.0709 46.0626 79.2108 46.0562 79.3457 46.0846C79.6462 46.1396 79.9298 46.264 80.1738 46.4478C80.4462 46.6492 80.6829 46.8948 80.8742 47.1744C81.0571 47.4092 81.1816 47.684 81.2375 47.9763C81.3048 48.2759 81.2958 48.5877 81.2113 48.8829C81.1228 49.2563 81.0012 49.621 80.848 49.9728C80.6941 50.3361 80.5469 50.6634 80.4094 50.9547C80.3027 51.1642 80.2161 51.3834 80.1508 51.6093C80.5743 51.2853 80.9725 50.9297 81.3422 50.5456C81.964 49.9433 82.6186 49.2953 83.3059 48.6014C83.9933 47.9076 84.6446 47.2923 85.2501 46.7359C85.5972 46.3821 85.9863 46.0721 86.4087 45.8129C86.6438 45.7371 86.8953 45.7281 87.1353 45.7867C87.4942 45.849 87.8431 45.9591 88.1728 46.114C88.506 46.2647 88.8193 46.456 89.1056 46.6835C89.3552 46.8715 89.5368 47.1358 89.6227 47.4363C89.6914 47.7145 89.5638 48.1629 89.2332 48.7847C88.9027 49.4066 88.5525 50.0546 88.1728 50.7288C87.7931 51.4031 87.4527 52.0086 87.1615 52.542C86.8702 53.0755 86.8047 53.3996 86.9782 53.501C87.1516 53.6025 87.5313 53.4683 88.1204 53.0886C88.7096 52.709 89.3543 52.2409 90.0646 51.6878C90.7748 51.1347 91.4392 50.5717 92.061 50.0022C92.6829 49.4328 93.1313 49.0204 93.4095 48.7847C93.5975 48.5878 93.8404 48.4521 94.1066 48.3952C94.19 48.3825 94.2752 48.3929 94.3531 48.4252C94.431 48.4575 94.4986 48.5105 94.5485 48.5785C94.6561 48.7281 94.7029 48.9129 94.6794 49.0956C94.6488 49.3344 94.5685 49.5641 94.4437 49.7699C94.2713 50.0121 93.9092 50.4354 93.3571 51.0398C92.8051 51.6442 92.1909 52.2835 91.5145 52.9577C90.8402 53.6319 90.1922 54.2451 89.5703 54.7971C89.1551 55.2151 88.6627 55.5485 88.1204 55.779C87.5671 55.991 86.9679 56.0542 86.3825 55.9623C85.7534 55.8776 85.1362 55.7205 84.5431 55.4942C83.9988 55.2969 83.4968 54.9981 83.0637 54.6138C82.7128 54.3375 82.4791 53.9389 82.4092 53.4977C82.4033 53.2111 82.4662 52.9271 82.5924 52.6697C82.7508 52.2456 82.9322 51.8304 83.1358 51.426C83.3452 51.0103 83.5416 50.6307 83.7314 50.2837C83.8437 50.1031 83.939 49.9124 84.0162 49.7142C83.0147 50.7856 82.1942 51.6322 81.5549 52.254C80.9167 52.8759 80.2752 53.4454 79.637 53.9658C78.9988 54.4862 78.5406 54.7415 78.2624 54.7415C77.7648 54.728 77.2808 54.5761 76.8648 54.3029C76.63 54.1635 76.429 53.9738 76.2762 53.7474C76.1234 53.521 76.0226 53.2636 75.9811 52.9937C75.964 52.5663 76.0081 52.1387 76.112 51.7238C76.2456 51.0746 76.4182 50.4342 76.6292 49.8059C76.8553 49.1308 77.1332 48.4743 77.4605 47.8421C77.7307 47.2622 78.116 46.7433 78.5929 46.3169Z" fill="#FD035B"/>
</svg>
