<svg width="28" height="26" viewBox="0 0 28 26" fill="none" xmlns="http://www.w3.org/2000/svg">
<path fill-rule="evenodd" clip-rule="evenodd" d="M21.4895 5.10459C21.7114 4.97095 21.9764 4.92843 22.229 4.98597C22.4816 5.04351 22.702 5.19662 22.8442 5.41319L23.8361 6.92615C23.9657 7.12389 24.0212 7.36107 23.9927 7.59577C23.9643 7.83047 23.8538 8.04756 23.6808 8.20865L23.6778 8.21266L23.6638 8.22569L23.6066 8.27879L23.3812 8.49421C22.1338 9.70417 20.9241 10.9525 19.7541 12.2375C17.5528 14.6582 14.9387 17.8264 13.1793 20.9004C12.6883 21.7581 11.489 21.9425 10.7776 21.202L4.27991 14.4508C4.18679 14.3541 4.11408 14.2395 4.06611 14.1141C4.01813 13.9886 3.99586 13.8548 4.00063 13.7206C4.0054 13.5864 4.0371 13.4545 4.09386 13.3328C4.15061 13.211 4.23126 13.102 4.33101 13.012L6.29484 11.2406C6.46742 11.085 6.68871 10.9942 6.92084 10.9838C7.15297 10.9734 7.3815 11.044 7.56733 11.1835L10.8828 14.6693C16.0609 9.56234 18.9986 6.60252 21.4895 5.10459Z" fill="#7FCCC6"/>
</svg>
