<svg width="28" height="26" viewBox="0 0 28 26" fill="none" xmlns="http://www.w3.org/2000/svg">
<path d="M22.9539 21.5705C23.1283 21.2981 24.5417 19.2898 23.7725 18.9872C22.5269 18.9652 21.3106 19.0373 20.1658 18.4358C18.6555 17.6436 17.5334 16.5622 16.411 15.2895C16.1081 14.9468 16.1144 14.5122 16.411 14.1679C18.203 11.9525 20.3347 10.3874 22.5771 8.48698C23.587 7.59281 21.9045 6.02741 20.6706 5.91534C20.1098 5.91534 19.5494 6.25065 18.9878 6.4742C16.9691 7.70398 15.7351 9.60469 14.1878 11.2491C14.0146 11.4589 13.7679 11.5155 13.5316 11.4711C13.2951 11.4273 13.069 11.2825 12.938 11.089C12.074 9.81005 11.2872 8.44465 10.7459 6.9952C10.4561 6.22115 10.1848 5.43696 9.98983 4.6328C9.70034 3.42865 9.26131 4.08437 8.75709 4.73324C7.37901 6.50549 6.85595 7.86523 8.06626 9.96713C8.95776 11.5158 9.91716 12.996 11.0183 14.4046C11.2235 14.6675 11.3688 15.0568 11.1424 15.3655C10.6436 16.0466 10.0287 16.8982 9.31455 17.6782C9.07755 17.9389 8.82814 18.1882 8.56719 18.4251C7.54559 19.5538 5.41446 19.4421 5.07772 20.4486C4.62972 21.3428 6.1995 22.907 7.71097 22.9609C7.98981 22.9379 8.26441 22.8785 8.52771 22.7842C10.3909 22.1297 11.9352 19.9038 13.0256 18.4871C13.3193 18.1047 13.8959 17.9095 14.2748 18.3264C15.7136 19.9088 17.3806 22.0644 19.5437 22.6653C20.9278 23.0495 22.142 22.8435 22.9524 21.5696" fill="#EA4335"/>
</svg>
