<svg width="64" height="61" viewBox="0 0 64 61" fill="none" xmlns="http://www.w3.org/2000/svg">
<path d="M4.16761 0.601192C2.62479 0.961849 1.28234 2.10394 0.380695 3.80704C0.0200366 4.48829 0 5.3699 0 24.7453C0 44.9421 0 44.9822 0.420768 45.9039C0.961756 47.086 2.12388 48.2281 3.286 48.7691C4.08746 49.1298 4.66852 49.1899 7.77419 49.25L11.3207 49.3301V54.2992C11.3207 58.9878 11.3407 59.2883 11.7214 59.7692C12.2223 60.3903 13.2842 60.6508 13.9455 60.3102C14.2059 60.1699 16.8708 57.6453 19.8362 54.6799L25.2461 49.2901L42.4775 49.25C59.5687 49.1899 59.709 49.1899 60.6307 48.7691C61.7928 48.2281 62.9549 47.066 63.4959 45.9039C63.9167 44.9822 63.9167 44.9421 63.9167 24.7453V4.50832L63.3156 3.44638C62.6744 2.26423 61.9932 1.62306 60.7309 0.941814L59.9094 0.501011L32.3591 0.460938C17.2114 0.460938 4.52827 0.501011 4.16761 0.601192ZM59.6489 4.74876L60.2099 5.28975V24.7653V44.2609L59.729 44.8219L59.2481 45.3829L41.3956 45.4831L23.543 45.5833L19.3353 49.791L15.1276 53.9987V50.6726C15.1276 48.7491 15.0274 47.086 14.9072 46.7053C14.5065 45.5833 14.0456 45.4831 9.21682 45.4831H4.86889L4.28783 44.9021L3.70677 44.321V24.8254V5.32982L4.24775 4.7688L4.78874 4.20778H31.9383H59.0879L59.6489 4.74876Z" fill="#FD9BD4"/>
<path d="M28.3716 8.31556C21.9198 9.71812 16.7303 14.9877 15.4079 21.4796C14.9671 23.7036 15.1074 27.5707 15.7285 29.5543C17.4517 35.1045 21.9198 39.5125 27.4499 41.1154C29.7741 41.7766 34.1421 41.7766 36.4664 41.1154C41.9965 39.5125 46.4646 35.1045 48.1878 29.5543C48.8089 27.5707 48.9491 23.7036 48.5083 21.4796C47.1859 14.9477 41.9363 9.65801 35.4445 8.31556C33.6412 7.9549 30.0947 7.9549 28.3716 8.31556ZM35.725 12.2427C37.8088 12.8839 39.5119 13.9458 41.195 15.6089C43.7597 18.1735 45.022 21.139 45.042 24.6454C45.062 26.9696 44.7214 28.4122 43.6395 30.6363C42.0165 34.0425 38.8307 36.6072 35.0638 37.569C33.541 37.9496 30.3752 37.9496 28.8525 37.569C25.0856 36.6072 21.8998 34.0425 20.2768 30.6363C19.1948 28.4122 18.8542 26.9696 18.8743 24.6454C18.8943 21.139 20.1566 18.1735 22.7213 15.6089C24.8451 13.485 27.2295 12.2628 30.0346 11.8019C31.5173 11.5815 34.1822 11.7819 35.725 12.2427Z" fill="#FD9BD4"/>
<path d="M25.0658 19.7362C24.3444 20.3974 24.3244 21.6397 25.0457 22.341C25.747 23.0623 26.9893 23.0423 27.6505 22.321C29.2534 20.5978 26.7889 18.1333 25.0658 19.7362Z" fill="#FD9BD4"/>
<path d="M36.2857 19.7562C35.1236 20.9383 35.9251 22.8418 37.5681 22.8418C38.6901 22.8418 39.3713 22.1606 39.3713 21.0385C39.3713 19.3955 37.4679 18.594 36.2857 19.7562Z" fill="#FD9BD4"/>
<path d="M25.4865 28.7322C24.5047 29.6539 24.5448 30.6958 25.6268 31.7177C27.39 33.3607 29.3736 34.1221 31.9583 34.1221C33.4611 34.1221 34.1022 34.0419 35.064 33.6612C37.1077 32.8598 38.8509 31.5374 39.0913 30.5756C39.3518 29.4736 38.3901 28.2514 37.248 28.2514C36.9675 28.2514 36.3063 28.5519 35.7853 28.9326C34.1223 30.1348 33.5813 30.3352 31.9583 30.3352C30.3354 30.3352 29.7944 30.1348 28.1313 28.9326C27.0093 28.1111 26.2078 28.051 25.4865 28.7322Z" fill="#FD9BD4"/>
</svg>
