<svg width="12" height="12" viewBox="0 0 12 12" fill="none" xmlns="http://www.w3.org/2000/svg">
<path d="M6 0.273438C2.85902 0.273438 0.3125 2.81996 0.3125 5.96094C0.3125 9.10191 2.85902 11.6484 6 11.6484C9.14098 11.6484 11.6875 9.10191 11.6875 5.96094C11.6875 2.81996 9.14098 0.273438 6 0.273438ZM8.625 6.83594H6C5.88397 6.83594 5.77269 6.78984 5.69064 6.7078C5.60859 6.62575 5.5625 6.51447 5.5625 6.39844V2.46094C5.5625 2.34491 5.60859 2.23363 5.69064 2.15158C5.77269 2.06953 5.88397 2.02344 6 2.02344C6.11603 2.02344 6.22731 2.06953 6.30936 2.15158C6.39141 2.23363 6.4375 2.34491 6.4375 2.46094V5.96094H8.625C8.74103 5.96094 8.85231 6.00703 8.93436 6.08908C9.01641 6.17112 9.0625 6.28241 9.0625 6.39844C9.0625 6.51447 9.01641 6.62575 8.93436 6.7078C8.85231 6.78984 8.74103 6.83594 8.625 6.83594Z" fill="#383838"/>
</svg>
