<svg width="64" height="61" viewBox="0 0 64 61" fill="none" xmlns="http://www.w3.org/2000/svg">
<path d="M4.16761 0.601192C2.62479 0.961849 1.28234 2.10394 0.380695 3.80704C0.0200366 4.48829 0 5.3699 0 24.7453C0 44.9421 0 44.9822 0.420768 45.9039C0.961756 47.086 2.12388 48.2281 3.286 48.7691C4.08746 49.1298 4.66852 49.1899 7.77419 49.25L11.3207 49.3301V54.2992C11.3207 58.9878 11.3407 59.2883 11.7214 59.7692C12.2223 60.3903 13.2842 60.6508 13.9455 60.3102C14.2059 60.1699 16.8708 57.6453 19.8362 54.6799L25.2461 49.2901L42.4775 49.25C59.5687 49.1899 59.709 49.1899 60.6307 48.7691C61.7928 48.2281 62.9549 47.066 63.4959 45.9039C63.9167 44.9822 63.9167 44.9421 63.9167 24.7453V4.50832L63.3156 3.44638C62.6744 2.26423 61.9932 1.62306 60.7309 0.941814L59.9094 0.501011L32.3591 0.460938C17.2114 0.460938 4.52827 0.501011 4.16761 0.601192ZM59.6489 4.74876L60.2099 5.28975V24.7653V44.2609L59.729 44.8219L59.2481 45.3829L41.3956 45.4831L23.543 45.5833L19.3353 49.791L15.1276 53.9987V50.6726C15.1276 48.7491 15.0274 47.086 14.9072 46.7053C14.5065 45.5833 14.0456 45.4831 9.21682 45.4831H4.86889L4.28783 44.9021L3.70677 44.321V24.8254V5.32982L4.24775 4.7688L4.78874 4.20778H31.9383H59.0879L59.6489 4.74876Z" fill="#FD9BD4"/>
<path d="M22.8815 12.2221C19.0746 13.4243 16.6502 17.2512 16.9908 21.4589C17.2112 24.224 18.4935 26.5482 21.3187 29.4134C23.5828 31.7177 30.8361 37.8288 31.4572 37.9891C31.7377 38.0492 32.1785 38.0492 32.459 37.9891C33.0802 37.8288 40.3334 31.7177 42.5975 29.4134C45.4227 26.5482 46.705 24.224 46.9254 21.4589C47.266 17.2312 44.8015 13.3842 41.0146 12.2221C37.9691 11.2803 34.643 12.182 32.5993 14.5263L31.9581 15.2476L31.3169 14.5263C29.2932 12.202 25.867 11.2603 22.8815 12.2221ZM27.0491 15.9489C28.091 16.4498 29.1329 17.6119 29.8543 19.1347C30.6557 20.8378 30.9763 21.1383 31.9581 21.1383C32.9399 21.1383 33.2605 20.8378 34.0619 19.1347C35.204 16.7503 36.6467 15.6283 38.5902 15.6283C41.3553 15.6283 43.3389 18.0126 43.1385 21.1183C42.9782 23.703 41.4154 25.7067 35.6849 30.5956C33.7013 32.2787 32.0383 33.6612 31.9581 33.6612C31.878 33.6612 30.2149 32.2787 28.2313 30.5956C22.5008 25.7067 20.938 23.703 20.7777 21.1183C20.5773 18.0126 22.5409 15.6283 25.306 15.6283C25.9071 15.6283 26.6885 15.7685 27.0491 15.9489Z" fill="#FD9BD4"/>
</svg>
