<svg width="10" height="14" viewBox="0 0 10 14" fill="none" xmlns="http://www.w3.org/2000/svg">
<path d="M5 0.835938C2.58473 0.835938 0.625 2.59988 0.625 4.77344C0.625 8.27344 5 13.0859 5 13.0859C5 13.0859 9.375 8.27344 9.375 4.77344C9.375 2.59988 7.41527 0.835938 5 0.835938ZM5 6.96094C4.65388 6.96094 4.31554 6.8583 4.02775 6.66601C3.73997 6.47372 3.51566 6.2004 3.38321 5.88063C3.25076 5.56086 3.2161 5.209 3.28363 4.86953C3.35115 4.53006 3.51782 4.21824 3.76256 3.9735C4.0073 3.72876 4.31913 3.56209 4.65859 3.49456C4.99806 3.42704 5.34993 3.46169 5.6697 3.59415C5.98947 3.7266 6.26278 3.9509 6.45507 4.23869C6.64736 4.52648 6.75 4.86482 6.75 5.21094C6.74949 5.67491 6.56496 6.11974 6.23688 6.44781C5.9088 6.77589 5.46397 6.96043 5 6.96094Z" fill="#383838"/>
</svg>
