<svg width="64" height="61" viewBox="0 0 64 61" fill="none" xmlns="http://www.w3.org/2000/svg">
<path d="M4.16761 0.601192C2.62479 0.961849 1.28234 2.10394 0.380695 3.80704C0.0200366 4.48829 0 5.3699 0 24.7453C0 44.9421 0 44.9822 0.420768 45.9039C0.961756 47.086 2.12388 48.2281 3.286 48.7691C4.08746 49.1298 4.66852 49.1899 7.77419 49.25L11.3207 49.3301V54.2992C11.3207 58.9878 11.3407 59.2883 11.7214 59.7692C12.2223 60.3903 13.2842 60.6508 13.9455 60.3102C14.2059 60.1699 16.8708 57.6453 19.8362 54.6799L25.2461 49.2901L42.4775 49.25C59.5687 49.1899 59.709 49.1899 60.6307 48.7691C61.7928 48.2281 62.9549 47.066 63.4959 45.9039C63.9167 44.9822 63.9167 44.9421 63.9167 24.7453V4.50832L63.3156 3.44638C62.6744 2.26423 61.9932 1.62306 60.7309 0.941814L59.9094 0.501011L32.3591 0.460938C17.2114 0.460938 4.52827 0.501011 4.16761 0.601192ZM59.6489 4.74876L60.2099 5.28975V24.7653V44.2609L59.729 44.8219L59.2481 45.3829L41.3956 45.4831L23.543 45.5833L19.3353 49.791L15.1276 53.9987V50.6726C15.1276 48.7491 15.0274 47.086 14.9072 46.7053C14.5065 45.5833 14.0456 45.4831 9.21682 45.4831H4.86889L4.28783 44.9021L3.70677 44.321V24.8254V5.32982L4.24775 4.7688L4.78874 4.20778H31.9383H59.0879L59.6489 4.74876Z" fill="#FD9BD4"/>
<path d="M30.8761 10.2386C30.5355 10.499 29.6339 12.0819 28.5118 14.306C27.53 16.2896 26.6885 17.9527 26.6684 17.9727C26.6684 17.9727 24.7049 18.2732 22.3405 18.5938C18.0928 19.1949 18.0327 19.215 17.4917 19.8161C17.131 20.2168 16.9307 20.6776 16.9307 21.0984C16.9307 21.6594 17.2713 22.0802 20.1365 24.8452L23.3624 27.9509L23.0418 29.7542C22.8615 30.736 22.5409 32.5793 22.3205 33.8216C21.8997 36.206 21.9398 36.6868 22.601 37.4282C23.3624 38.2497 24.1438 38.0493 28.2313 35.9455L31.9581 34.022L35.6849 35.9455C39.7724 38.0493 40.5538 38.2497 41.3152 37.4082C41.9764 36.6868 42.0165 36.206 41.5957 33.8216C41.3753 32.5793 41.0547 30.736 40.8744 29.7542L40.5538 27.9509L43.7797 24.8452C46.6449 22.0802 46.9855 21.6594 46.9855 21.0984C46.9855 20.6776 46.7852 20.2168 46.4245 19.8161C45.8835 19.215 45.8234 19.1949 41.5756 18.5938C39.2113 18.2732 37.2477 17.9727 37.2477 17.9727C37.2277 17.9527 36.3862 16.2896 35.4044 14.306C33.5209 10.5391 32.9599 9.8178 31.9581 9.8178C31.6575 9.8178 31.1767 10.0182 30.8761 10.2386ZM33.3005 18.5337C34.2423 20.3971 34.7031 21.0984 35.1038 21.2988C35.4244 21.4591 36.8671 21.7396 38.3498 21.9399L41.0547 22.3006L39.011 24.2241C37.8889 25.286 36.8871 26.368 36.8069 26.6485C36.6467 27.0893 36.8069 28.3717 37.4681 32.0183L37.5884 32.6795L34.9836 31.3571C33.541 30.6358 32.1785 30.0547 31.9581 30.0547C31.7377 30.0547 30.3752 30.6358 28.9326 31.3571L26.3278 32.6795L26.448 32.0183C27.1092 28.3717 27.2695 27.0893 27.1092 26.6485C27.0291 26.368 26.0273 25.286 24.9052 24.2241L22.8615 22.3006L25.5664 21.9399C27.0491 21.7396 28.4918 21.4591 28.8124 21.2988C29.2131 21.0984 29.6739 20.3971 30.6156 18.5337C31.2969 17.1512 31.898 16.0291 31.9581 16.0291C32.0182 16.0291 32.6193 17.1512 33.3005 18.5337Z" fill="#FD9BD4"/>
</svg>
